<svg width="370" height="336" viewBox="0 0 370 336" fill="none" xmlns="http://www.w3.org/2000/svg">
<path d="M51.7164 322C51.7164 322 31.4615 270.17 52.7045 240.368C73.9474 210.565 94.038 247.111 116.104 235.768C138.171 224.425 136.134 149.303 189.436 152.075C242.738 154.847 242.628 208.544 269.196 225.401C295.763 242.258 328.479 239.856 319.477 322H51.7164Z" fill="#E5F0F8"/>
<path d="M172 318H137V263H172V318Z" fill="#93ACBF"/>
<path d="M67.8071 285.355L64.8984 291.126" stroke="#0F9954" stroke-width="1.12764" stroke-miterlimit="10"/>
<path d="M157.744 121.032H51.3854C50.1263 121.032 49.1055 122.696 49.1055 124.748V133.351V209.891H160.024V133.351V124.748C160.024 122.696 159.003 121.032 157.744 121.032Z" fill="#BBDBF3"/>
<path d="M50.5859 129.384V208.522H158.539V129.384H50.5859Z" fill="#E5F0F8"/>
<path d="M55.2344 137.479V136.648L60.0552 134.051V135.321L56.835 137.064L60.0552 138.806V140.076L55.2344 137.479Z" fill="white"/>
<path d="M96.8164 206.47V205.2L100.037 203.458L96.8164 201.714V200.444L101.637 203.041V203.873L96.8164 206.47Z" fill="white"/>
<path d="M81.0116 138.044H61.8398V136.083H81.0116V138.044Z" fill="white"/>
<path d="M74.406 145.62H55.2344V143.659H74.406V145.62Z" fill="white"/>
<path d="M78.4881 150.898H59.3164V148.939H78.4881V150.898Z" fill="white"/>
<path d="M78.4881 165.424H59.3164V163.464H78.4881V165.424Z" fill="white"/>
<path d="M78.4881 169.919H59.3164V167.958H78.4881V169.919Z" fill="white"/>
<path d="M123.72 155.925H65.9023V153.964H123.72V155.925Z" fill="white"/>
<path d="M143.142 174.692H65.9023V172.733H143.142V174.692Z" fill="white"/>
<path d="M143.142 189.723H65.9023V187.763H143.142V189.723Z" fill="white"/>
<path d="M147.167 204.438H73.168V202.478H147.167V204.438Z" fill="white"/>
<path d="M82.446 194.83H65.9023V192.87H82.446V194.83Z" fill="white"/>
<path d="M82.446 199.688H65.9023V197.729H82.446V199.688Z" fill="white"/>
<path d="M143.142 179.491H65.9023V177.53H143.142V179.491Z" fill="white"/>
<path d="M107.692 184.288H65.9023V182.328H107.692V184.288Z" fill="white"/>
<path d="M83.6313 160.443H65.9023V158.482H83.6313V160.443Z" fill="white"/>
<path d="M150.234 127.757L155.142 122.873" stroke="white" stroke-width="1.24633" stroke-miterlimit="10" stroke-linecap="round" stroke-linejoin="round"/>
<path d="M155.142 127.757L150.234 122.873" stroke="white" stroke-width="1.24633" stroke-miterlimit="10" stroke-linecap="round" stroke-linejoin="round"/>
<path d="M239.221 211.756H234.48C233.206 211.756 232.172 210.727 232.172 209.457V200.989H241.529V209.457C241.529 210.727 240.495 211.756 239.221 211.756Z" fill="#BBDBF3"/>
<path d="M295.716 211.756H300.455C301.731 211.756 302.765 210.727 302.765 209.457V200.989H293.406V209.457C293.406 210.727 294.44 211.756 295.716 211.756Z" fill="#BBDBF3"/>
<path d="M265.221 211.756H260.48C259.206 211.756 258.172 210.727 258.172 209.457V200.989H267.529V209.457C267.529 210.727 266.495 211.756 265.221 211.756Z" fill="#BBDBF3"/>
<path d="M298.086 206.372V317.678" stroke="#BBDBF3" stroke-width="2.89727" stroke-miterlimit="10" stroke-linecap="round"/>
<path d="M262.852 206.372V317.678" stroke="#BBDBF3" stroke-width="2.89727" stroke-miterlimit="10" stroke-linecap="round"/>
<path d="M236.852 206.372V317.678" stroke="#BBDBF3" stroke-width="2.89727" stroke-miterlimit="10" stroke-linecap="round"/>
<path d="M280.676 282.684H103.883C93.3487 282.684 84.8086 274.183 84.8086 263.697V162.384C84.8086 151.898 93.3487 143.398 103.883 143.398H280.676C291.21 143.398 299.751 151.898 299.751 162.384V263.697C299.751 274.183 291.21 282.684 280.676 282.684Z" fill="#93ACBF"/>
<path d="M103.885 275.564C97.3094 275.564 91.9609 270.241 91.9609 263.697V162.384C91.9609 155.84 97.3094 150.516 103.885 150.516H280.677C287.251 150.516 292.599 155.84 292.599 162.384V263.697C292.599 270.241 287.251 275.564 280.677 275.564H103.885Z" fill="#E5F0F8"/>
<path d="M285.445 162.386V168.929H99.1094V162.386C99.1094 159.767 101.252 157.633 103.884 157.633H280.671C283.302 157.633 285.445 159.767 285.445 162.386Z" fill="#BBDBF3"/>
<path d="M285.446 169.198V263.963C285.446 266.582 283.303 268.715 280.672 268.715H103.883C101.251 268.715 99.1094 266.582 99.1094 263.963V169.198H285.446Z" fill="white"/>
<path d="M111.12 163.64C111.12 164.646 110.3 165.462 109.29 165.462C108.279 165.462 107.461 164.646 107.461 163.64C107.461 162.635 108.279 161.819 109.29 161.819C110.3 161.819 111.12 162.635 111.12 163.64Z" fill="#0F9954"/>
<path d="M116.273 163.64C116.273 164.646 115.454 165.462 114.443 165.462C113.433 165.462 112.613 164.646 112.613 163.64C112.613 162.635 113.433 161.819 114.443 161.819C115.454 161.819 116.273 162.635 116.273 163.64Z" fill="white"/>
<path d="M157.968 306.539H226.589C227.262 306.539 227.808 307.082 227.808 307.752V314.474C227.808 315.142 227.262 315.686 226.589 315.686H157.968C157.296 315.686 156.75 315.142 156.75 314.474V307.752C156.75 307.082 157.296 306.539 157.968 306.539Z" fill="#93ACBF"/>
<path d="M121.421 163.64C121.421 164.646 120.602 165.462 119.592 165.462C118.581 165.462 117.762 164.646 117.762 163.64C117.762 162.635 118.581 161.819 119.592 161.819C120.602 161.819 121.421 162.635 121.421 163.64Z" fill="#CC1439"/>
<path d="M119.523 176.217H103.586V173.75H119.523V176.217Z" fill="#BBDBF3"/>
<path d="M161.624 180.015H99.1094V188.41H285.445V180.015H161.624Z" fill="#BBDBF3"/>
<path d="M139.123 176.217H123.188V173.75H139.123V176.217Z" fill="#BBDBF3"/>
<path d="M158.726 176.217H142.789V173.75H158.726V176.217Z" fill="#BBDBF3"/>
<path d="M178.332 176.217H162.395V173.75H178.332V176.217Z" fill="#BBDBF3"/>
<path d="M123.791 185.013H103.586V183.347H123.791V185.013Z" fill="white"/>
<path d="M148.643 185.013H128.438V183.347H148.643V185.013Z" fill="white"/>
<path d="M173.499 185.013H153.293V183.347H173.499V185.013Z" fill="white"/>
<path d="M160.472 185.013H140.266V183.347H160.472V185.013Z" fill="white"/>
<path d="M160.05 176.217H144.113V173.75H160.05V176.217Z" fill="#BBDBF3"/>
<path d="M179.656 176.217H163.719V173.75H179.656V176.217Z" fill="#BBDBF3"/>
<path d="M215.546 178.431H192.383V170.883H215.546V178.431Z" stroke="#BBDBF3" stroke-width="1.18603" stroke-miterlimit="10"/>
<path d="M241.925 178.431H218.762V170.883H241.925V178.431Z" fill="#BBDBF3"/>
<path d="M137.07 282.699H171.719L137.07 291.403V282.699Z" fill="#586773"/>
<path d="M104.477 242.435V192.238H170.04V242.435H104.477Z" fill="#BBDBF3"/>
<path d="M151.829 216.586L127.176 202.418V230.754L151.829 216.586Z" fill="white"/>
<path d="M170.04 242.435H104.477V239.702H170.04V242.435Z" fill="#E5F0F8"/>
<path d="M136.659 242.435H104.477V239.702H136.659V242.435Z" fill="#BBDBF3"/>
<path d="M138.998 242.435H134.931C134.176 242.435 133.559 241.82 133.559 241.069C133.559 240.317 134.176 239.703 134.931 239.703H138.998C139.753 239.703 140.371 240.317 140.371 241.069C140.371 241.82 139.753 242.435 138.998 242.435Z" fill="white"/>
<path d="M140.266 249.564V192.239H243.119V249.564H140.266Z" fill="#BBDBF3"/>
<path d="M240.589 246.135H142.789V195.035H240.589V246.135Z" fill="white"/>
<path d="M142.789 246.135L166.77 222.756L186.502 239.703L217.267 208.772L240.589 246.135H142.789Z" fill="#BBDBF3"/>
<path d="M191.329 210.905C191.329 214.042 188.774 216.586 185.621 216.586C182.469 216.586 179.914 214.042 179.914 210.905C179.914 207.767 182.469 205.223 185.621 205.223C188.774 205.223 191.329 207.767 191.329 210.905Z" fill="#BBDBF3"/>
<path d="M148.586 255.257H140.266V253.569H148.586V255.257Z" fill="#BBDBF3"/>
<path d="M182.618 255.257H149.754V253.569H182.618V255.257Z" fill="#BBDBF3"/>
<path d="M212.386 255.257H183.922V253.569H212.386V255.257Z" fill="#BBDBF3"/>
<path d="M243.117 255.257H213.555V253.569H243.117V255.257Z" fill="#BBDBF3"/>
<path d="M157.523 258.48H140.266V256.792H157.523V258.48Z" fill="#BBDBF3"/>
<path d="M189.7 258.48H158.863V256.792H189.7V258.48Z" fill="#BBDBF3"/>
<path d="M243.115 258.48H191.035V256.792H243.115V258.48Z" fill="#BBDBF3"/>
<path d="M166.735 261.702H140.266V260.014H166.735V261.702Z" fill="#BBDBF3"/>
<path d="M205.307 261.702H167.836V260.014H205.307V261.702Z" fill="#BBDBF3"/>
<path d="M243.119 261.702H206.75V260.014H243.119V261.702Z" fill="#BBDBF3"/>
<path d="M172.695 264.925H140.266V263.238H172.695V264.925Z" fill="#BBDBF3"/>
<path d="M206.706 264.925H174.277V263.238H206.706V264.925Z" fill="#BBDBF3"/>
<path d="M243.058 264.925H208.168V263.238H243.058V264.925Z" fill="#BBDBF3"/>
<path d="M109.779 248.812H104.477V247.124H109.779V248.812Z" fill="#BBDBF3"/>
<path d="M131.472 248.812H110.523V247.124H131.472V248.812Z" fill="#BBDBF3"/>
<path d="M150.449 248.812H132.305V247.124H150.449V248.812Z" fill="#BBDBF3"/>
<path d="M170.04 248.812H151.195V247.124H170.04V248.812Z" fill="#BBDBF3"/>
<path d="M115.477 252.034H104.477V250.346H115.477V252.034Z" fill="#BBDBF3"/>
<path d="M135.989 252.034H116.332V250.346H135.989V252.034Z" fill="#BBDBF3"/>
<path d="M170.038 252.034H136.84V250.346H170.038V252.034Z" fill="#BBDBF3"/>
<path d="M121.349 255.257H104.477V253.569H121.349V255.257Z" fill="#BBDBF3"/>
<path d="M145.937 255.257H122.051V253.569H145.937V255.257Z" fill="#BBDBF3"/>
<path d="M170.039 255.257H146.855V253.569H170.039V255.257Z" fill="#BBDBF3"/>
<path d="M125.148 258.48H104.477V256.792H125.148V258.48Z" fill="#BBDBF3"/>
<path d="M146.832 258.48H126.16V256.792H146.832V258.48Z" fill="#BBDBF3"/>
<path d="M170.002 258.48H147.762V256.792H170.002V258.48Z" fill="#BBDBF3"/>
<path d="M122.693 261.702H104.477V260.014H122.693V261.702Z" fill="#BBDBF3"/>
<path d="M149.648 261.702H123.453V260.014H149.648V261.702Z" fill="#BBDBF3"/>
<path d="M170.001 261.702H150.449V260.014H170.001V261.702Z" fill="#BBDBF3"/>
<path d="M113.928 264.925H104.477V263.238H113.928V264.925Z" fill="#BBDBF3"/>
<path d="M127.514 264.925H114.812V263.238H127.514V264.925Z" fill="#BBDBF3"/>
<path d="M148.686 264.925H128.488V263.238H148.686V264.925Z" fill="#BBDBF3"/>
<path d="M169.845 264.925H149.648V263.238H169.845V264.925Z" fill="#BBDBF3"/>
<path d="M127.91 296.1C127.91 295.339 128.531 294.722 129.295 294.722C130.061 294.722 130.68 295.339 130.68 296.1C130.68 296.628 130.381 297.087 129.943 297.318V300.344C129.943 300.698 129.652 300.988 129.295 300.988C128.939 300.988 128.648 300.698 128.648 300.344V297.318C128.209 297.087 127.91 296.628 127.91 296.1Z" fill="#F9ECB8"/>
<path d="M124.175 281.453H115.149V272.934H100.07" stroke="white" stroke-width="0.321786" stroke-miterlimit="10"/>
<path d="M124.176 284.726H107.753V281.044H99.5352" stroke="white" stroke-width="0.321786" stroke-miterlimit="10"/>
<path d="M119.915 289.941H108.738" stroke="white" stroke-width="0.321786" stroke-miterlimit="10"/>
<path d="M119.505 293.15H112.519V294.804H103.643V289.941H97.8086" stroke="white" stroke-width="0.321786" stroke-miterlimit="10"/>
<path d="M120.288 297.855H112.927V301.685H97.1484" stroke="white" stroke-width="0.321786" stroke-miterlimit="10"/>
<path d="M119.917 303.948H116.136V308.203H102.582V310.748" stroke="white" stroke-width="0.321786" stroke-miterlimit="10"/>
<path d="M121.699 304.841V311.144" stroke="white" stroke-width="0.321786" stroke-miterlimit="10"/>
<path d="M98.8555 272.934C98.8555 273.261 99.1219 273.527 99.4509 273.527C99.7799 273.527 100.046 273.261 100.046 272.934C100.046 272.606 99.7799 272.341 99.4509 272.341C99.1219 272.341 98.8555 272.606 98.8555 272.934Z" stroke="white" stroke-width="0.321786" stroke-miterlimit="10"/>
<path d="M98.3984 281.043C98.3984 281.372 98.6659 281.637 98.9949 281.637C99.324 281.637 99.5904 281.372 99.5904 281.043C99.5904 280.715 99.324 280.45 98.9949 280.45C98.6659 280.45 98.3984 280.715 98.3984 281.043Z" stroke="white" stroke-width="0.321786" stroke-miterlimit="10"/>
<path d="M107.672 289.94C107.672 290.268 107.938 290.534 108.267 290.534C108.596 290.534 108.864 290.268 108.864 289.94C108.864 289.613 108.596 289.348 108.267 289.348C107.938 289.348 107.672 289.613 107.672 289.94Z" stroke="white" stroke-width="0.321786" stroke-miterlimit="10"/>
<path d="M96.6914 289.94C96.6914 290.268 96.9578 290.534 97.2869 290.534C97.6159 290.534 97.8834 290.268 97.8834 289.94C97.8834 289.613 97.6159 289.348 97.2869 289.348C96.9578 289.348 96.6914 289.613 96.6914 289.94Z" stroke="white" stroke-width="0.321786" stroke-miterlimit="10"/>
<path d="M95.957 301.685C95.957 302.012 96.2245 302.277 96.5535 302.277C96.8826 302.277 97.149 302.012 97.149 301.685C97.149 301.357 96.8826 301.092 96.5535 301.092C96.2245 301.092 95.957 301.357 95.957 301.685Z" stroke="white" stroke-width="0.321786" stroke-miterlimit="10"/>
<path d="M101.984 311.344C101.984 311.671 102.251 311.937 102.58 311.937C102.909 311.937 103.175 311.671 103.175 311.344C103.175 311.016 102.909 310.75 102.58 310.75C102.251 310.75 101.984 311.016 101.984 311.344Z" stroke="white" stroke-width="0.321786" stroke-miterlimit="10"/>
<path d="M130.645 304.341C130.645 309.746 115.579 314.129 96.9945 314.129C78.4098 314.129 63.3438 309.746 63.3438 304.341C63.3438 298.935 78.4098 294.553 96.9945 294.553C115.579 294.553 130.645 298.935 130.645 304.341Z" fill="#93ACBF"/>
<path d="M130.645 290.492V304.341H63.3438V290.492H130.645Z" fill="#93ACBF"/>
<path d="M130.645 290.493C130.645 295.899 115.579 300.28 96.9945 300.28C78.4098 300.28 63.3438 295.899 63.3438 290.493C63.3438 285.087 78.4098 280.704 96.9945 280.704C115.579 280.704 130.645 285.087 130.645 290.493Z" fill="#586773"/>
<path d="M125.673 281.209V292.297C125.673 292.841 125.351 293.332 124.849 293.548C118.796 296.142 108.578 297.846 96.9906 297.846C85.4068 297.846 75.1893 296.142 69.137 293.548C68.635 293.332 68.3123 292.841 68.3123 292.297V281.209C68.3123 280.458 68.924 279.849 69.6786 279.849H124.307C125.062 279.849 125.673 280.458 125.673 281.209Z" fill="#2EC6FC"/>
<path d="M130.645 284.385C130.645 289.791 115.579 294.174 96.9945 294.174C78.4098 294.174 63.3438 289.791 63.3438 284.385C63.3438 278.979 78.4098 274.598 96.9945 274.598C115.579 274.598 130.645 278.979 130.645 284.385Z" fill="#93ACBF"/>
<path d="M130.645 270.536V284.385H63.3438V270.536H130.645Z" fill="#93ACBF"/>
<path d="M130.645 270.536C130.645 275.942 115.579 280.324 96.9945 280.324C78.4098 280.324 63.3438 275.942 63.3438 270.536C63.3438 265.13 78.4098 260.748 96.9945 260.748C115.579 260.748 130.645 265.13 130.645 270.536Z" fill="#586773"/>
<path d="M125.673 261.69V272.41C125.673 273.043 125.299 273.618 124.714 273.864C118.645 276.426 108.492 278.105 96.9906 278.105C85.4927 278.105 75.3409 276.426 69.2723 273.864C68.687 273.618 68.3123 273.043 68.3123 272.41V261.69C68.3123 260.816 69.0238 260.108 69.9015 260.108H124.084C124.962 260.108 125.673 260.816 125.673 261.69Z" fill="#2EC6FC"/>
<path d="M130.645 264.888C130.645 270.294 115.579 274.676 96.9945 274.676C78.4098 274.676 63.3438 270.294 63.3438 264.888C63.3438 259.482 78.4098 255.1 96.9945 255.1C115.579 255.1 130.645 259.482 130.645 264.888Z" fill="#93ACBF"/>
<path d="M130.645 251.04V264.889H63.3438V251.04H130.645Z" fill="#93ACBF"/>
<path d="M130.642 251.041C130.642 252.917 128.826 254.67 125.674 256.161C119.753 258.958 109.123 260.826 96.9912 260.826C84.8635 260.826 74.2334 258.962 68.3128 256.161C65.1608 254.67 63.3398 252.917 63.3398 251.041C63.3398 250.773 63.3768 250.511 63.4507 250.249C63.8805 248.671 65.6045 247.199 68.3128 245.92C74.2334 243.119 84.8635 241.251 96.9912 241.251C109.123 241.251 119.753 243.119 125.674 245.92C128.377 247.199 130.102 248.671 130.532 250.249C130.605 250.511 130.642 250.773 130.642 251.041Z" fill="#586773"/>
<path d="M125.673 244.337V254.578C119.753 257.38 109.123 259.248 96.9906 259.248C84.863 259.248 74.2328 257.38 68.3123 254.578V244.337C70.9282 243.1 74.4593 242.043 78.6373 241.251C83.9154 240.248 90.2196 239.669 96.9906 239.669C103.762 239.669 110.065 240.248 115.344 241.251C119.521 242.043 123.057 243.1 125.673 244.337Z" fill="#586773"/>
<path d="M125.673 242.662V253.665C125.673 254.23 125.339 254.741 124.818 254.963C118.761 257.55 108.559 259.248 96.9906 259.248C85.4265 259.248 75.224 257.55 69.1679 254.963C68.6468 254.741 68.3123 254.23 68.3123 253.665V242.662C68.3123 241.883 68.9469 241.251 69.7298 241.251H124.256C125.039 241.251 125.673 241.883 125.673 242.662Z" fill="#2EC6FC"/>
<path d="M130.645 245.541C130.645 250.948 115.579 255.33 96.9945 255.33C78.4098 255.33 63.3438 250.948 63.3438 245.541C63.3438 240.136 78.4098 235.754 96.9945 235.754C115.579 235.754 130.645 240.136 130.645 245.541Z" fill="#93ACBF"/>
<path d="M130.645 231.693V245.541H63.3438V231.693H130.645Z" fill="#93ACBF"/>
<path d="M130.645 231.693C130.645 237.098 115.579 241.48 96.9945 241.48C78.4098 241.48 63.3438 237.098 63.3438 231.693C63.3438 226.287 78.4098 221.904 96.9945 221.904C115.579 221.904 130.645 226.287 130.645 231.693Z" fill="#BBDBF3"/>
<path d="M113.434 245.462C113.434 246.162 112.864 246.729 112.16 246.729C111.457 246.729 110.887 246.162 110.887 245.462C110.887 244.761 111.457 244.194 112.16 244.194C112.864 244.194 113.434 244.761 113.434 245.462Z" fill="#BBDBF3"/>
<path d="M122.036 243.787C122.036 244.487 121.466 245.055 120.762 245.055C120.058 245.055 119.488 244.487 119.488 243.787C119.488 243.086 120.058 242.519 120.762 242.519C121.466 242.519 122.036 243.086 122.036 243.787Z" fill="#BBDBF3"/>
<path d="M117.735 244.834C117.735 245.533 117.165 246.102 116.461 246.102C115.757 246.102 115.188 245.533 115.188 244.834C115.188 244.133 115.757 243.566 116.461 243.566C117.165 243.566 117.735 244.133 117.735 244.834Z" fill="#2EC6FC"/>
<path d="M113.434 263.691C113.434 264.392 112.864 264.959 112.16 264.959C111.457 264.959 110.887 264.392 110.887 263.691C110.887 262.991 111.457 262.423 112.16 262.423C112.864 262.423 113.434 262.991 113.434 263.691Z" fill="#BBDBF3"/>
<path d="M122.036 262.016C122.036 262.716 121.466 263.284 120.762 263.284C120.058 263.284 119.488 262.716 119.488 262.016C119.488 261.316 120.058 260.749 120.762 260.749C121.466 260.749 122.036 261.316 122.036 262.016Z" fill="#586773"/>
<path d="M117.735 263.063C117.735 263.763 117.165 264.331 116.461 264.331C115.757 264.331 115.188 263.763 115.188 263.063C115.188 262.363 115.757 261.795 116.461 261.795C117.165 261.795 117.735 262.363 117.735 263.063Z" fill="#BBDBF3"/>
<path d="M113.434 283.3C113.434 284 112.864 284.567 112.16 284.567C111.457 284.567 110.887 284 110.887 283.3C110.887 282.6 111.457 282.032 112.16 282.032C112.864 282.032 113.434 282.6 113.434 283.3Z" fill="#586773"/>
<path d="M122.036 281.626C122.036 282.326 121.466 282.894 120.762 282.894C120.058 282.894 119.488 282.326 119.488 281.626C119.488 280.925 120.058 280.358 120.762 280.358C121.466 280.358 122.036 280.925 122.036 281.626Z" fill="#2EC6FC"/>
<path d="M117.735 282.672C117.735 283.371 117.165 283.939 116.461 283.939C115.757 283.939 115.188 283.371 115.188 282.672C115.188 281.971 115.757 281.404 116.461 281.404C117.165 281.404 117.735 281.971 117.735 282.672Z" fill="#BBDBF3"/>
<path d="M113.434 302.909C113.434 303.609 112.864 304.177 112.16 304.177C111.457 304.177 110.887 303.609 110.887 302.909C110.887 302.21 111.457 301.642 112.16 301.642C112.864 301.642 113.434 302.21 113.434 302.909Z" fill="#2EC6FC"/>
<path d="M122.036 301.234C122.036 301.935 121.466 302.502 120.762 302.502C120.058 302.502 119.488 301.935 119.488 301.234C119.488 300.535 120.058 299.966 120.762 299.966C121.466 299.966 122.036 300.535 122.036 301.234Z" fill="#BBDBF3"/>
<path d="M117.735 302.281C117.735 302.981 117.165 303.549 116.461 303.549C115.757 303.549 115.188 302.981 115.188 302.281C115.188 301.581 115.757 301.013 116.461 301.013C117.165 301.013 117.735 301.581 117.735 302.281Z" fill="#2EC6FC"/>
<path d="M81.5736 200.948C81.5736 200.948 79.1269 197.844 82.7694 196.334C84.6067 195.573 85.1271 194.586 84.612 193.203C84.097 191.819 84.6723 190.318 86.1296 189.517C87.5868 188.716 88.2145 186.333 91.2562 187.731C91.2562 187.731 95.0921 189.229 94.9372 191.562C94.7823 193.895 94.8136 193.696 95.632 195.283C96.4504 196.87 94.7449 198.769 94.6811 199.72C94.6188 200.65 95.0287 200.948 95.0287 200.948H81.5736Z" fill="#322A28"/>
<path d="M105.355 221.98C103.667 223.012 101.438 222.481 100.403 220.801L92.6149 208.172C91.5789 206.492 92.1121 204.274 93.8001 203.242C95.4879 202.211 97.7166 202.742 98.7526 204.422L106.541 217.051C107.577 218.731 107.043 220.949 105.355 221.98Z" fill="#CC1439"/>
<path d="M81.5307 226.437C81.5307 226.437 80.4812 227.624 80.0639 228.592C79.6464 229.56 84.63 229.026 84.63 229.026L84.0866 224.375L81.5307 226.437Z" fill="#0066CC"/>
<path d="M114.761 246.81C112.815 249.512 109.002 250.137 106.288 248.2L87.3317 234.667C84.6178 232.729 83.99 228.933 85.9364 226.232C87.8828 223.53 91.6959 222.906 94.4097 224.843L113.366 238.376C116.08 240.314 116.707 244.109 114.761 246.81Z" fill="#004C99"/>
<path d="M109.301 248.504C107.354 251.206 103.541 251.83 100.827 249.893L81.8708 236.36C79.1569 234.422 78.529 230.627 80.4755 227.926C82.422 225.224 86.235 224.6 88.9489 226.537L107.905 240.07C110.619 242.008 111.247 245.803 109.301 248.504Z" fill="#0066CC"/>
<path d="M86.6806 201.248L80.3789 204.202C80.3789 204.202 81.78 220.237 81.9248 222.003C82.0697 223.769 81.5265 226.437 81.5265 226.437H96.6282C96.6282 226.437 96.4471 217.785 97.4611 215.37C98.148 213.734 98.62 212.739 98.2215 210.863C97.8232 208.989 96.4833 206.178 96.954 202.933L93.079 201.383L86.6806 201.248Z" fill="#CC1439"/>
<path d="M114.173 276.424L113.012 272.352L119.321 271.444L119.831 275.551L114.173 276.424Z" fill="#A06753"/>
<path d="M93.0832 194.091V201.385C93.0832 201.385 93.0832 201.474 93.0654 201.616C92.9901 202.212 92.6034 203.741 90.6122 203.72C88.7929 203.698 87.5216 202.369 86.9808 201.67C86.7838 201.421 86.6836 201.249 86.6836 201.249L87.6003 194.091H93.0832Z" fill="#A06753"/>
<path d="M92.8555 275.714L98.4758 276.795L99.6677 273.246L93.4267 272.319L92.8555 275.714Z" fill="#A06753"/>
<path d="M93.0781 201.384L89.8203 197.243L93.0781 196.619V201.384Z" fill="#824C3A"/>
<path d="M93.233 198.514C91.9357 198.934 90.1375 198.422 88.865 197.092C87.5925 195.761 84.7336 190.781 88.5495 188.462C92.3696 186.143 94.6256 189.982 94.7244 190.576C94.7244 190.576 94.7623 192.671 94.7853 194.147C94.7939 194.522 94.7996 194.856 94.8036 195.108C94.8023 195.149 94.8063 195.186 94.8061 195.223C94.8245 196.379 94.5291 198.097 93.233 198.514Z" fill="#A06753"/>
<path d="M74.0895 223.972C72.3025 223.122 71.5391 220.971 72.3928 219.192L78.8104 205.822C79.6643 204.044 81.8249 203.283 83.6119 204.134C85.3989 204.983 86.1625 207.134 85.3087 208.912L78.891 222.283C78.0372 224.062 75.8765 224.822 74.0895 223.972Z" fill="#CC1439"/>
<path d="M108.201 238.557C105.175 239.638 103.602 242.957 104.687 245.969L112.302 273.246L121.685 271.793L115.979 243.674H115.976C115.945 243.134 115.84 242.589 115.646 242.053C114.561 239.041 111.227 237.477 108.201 238.557Z" fill="#004C99"/>
<path d="M91.8789 279.993L94.5394 280.46L95.0129 278.78L96.1591 280.744L102.436 281.845L98.4764 276.795L92.856 275.714L91.8789 279.993Z" fill="#322A28"/>
<path d="M105.672 238.935C102.505 238.378 99.4863 240.482 98.928 243.635L91.7227 272.733L100.709 274.459L109.875 247.218H109.873C110.115 246.733 110.295 246.208 110.394 245.647C110.952 242.495 108.839 239.49 105.672 238.935Z" fill="#0066CC"/>
<path d="M96.7031 277.596L99.214 278.029" stroke="#D1DDFF" stroke-width="0.567195" stroke-miterlimit="10"/>
<path d="M91.2517 187.731C91.2517 187.731 94.7309 187.843 95.1775 191.162L93.411 191.246C93.411 191.246 93.4389 190.108 92.5508 189.611C92.5508 189.611 93.1765 190.479 92.9623 191.33L90.9162 191.533C90.9162 191.533 90.8265 190.296 90.9362 189.808C90.9362 189.808 90.4417 190.938 90.4259 191.612L88.986 192.005C88.986 192.005 88.9955 193.159 88.474 193.573C87.9525 193.987 87.2562 195.838 87.2562 195.838C87.2562 195.838 85.7619 191.759 86.4224 190.459C87.0828 189.16 88.2647 187.073 91.2517 187.731Z" fill="#322A28"/>
<path d="M97.1562 278.563L99.6671 278.996" stroke="#D1DDFF" stroke-width="0.567195" stroke-miterlimit="10"/>
<path d="M114.654 280.725L117.322 280.298L117.216 278.557L118.946 280.038L125.238 279.031L119.834 275.551L114.176 276.424L114.654 280.725Z" fill="#322A28"/>
<path d="M118.426 276.888L120.94 276.477" stroke="#D1DDFF" stroke-width="0.567195" stroke-miterlimit="10"/>
<path d="M119.168 277.653L121.682 277.242" stroke="#D1DDFF" stroke-width="0.567195" stroke-miterlimit="10"/>
<path d="M93.6875 229.921C93.6875 229.921 103.665 236.924 105.592 238.258C107.521 239.594 110.369 241.103 110.48 244.311C110.591 247.519 107.331 254.651 107.331 254.651" stroke="#E5F0F8" stroke-width="0.283597" stroke-miterlimit="10"/>
<path d="M88.2476 194.544C88.4728 195.225 88.4672 195.664 87.9296 195.839C87.3919 196.015 86.6473 195.727 86.4221 195.044C86.1969 194.363 86.45 193.668 86.9877 193.492C87.5253 193.316 88.0223 193.862 88.2476 194.544Z" fill="#A06753"/>
<path d="M86.8867 194.179C86.8867 194.179 87.7488 194.137 87.8238 194.864C87.8238 194.864 87.5412 194.605 87.1105 194.683" stroke="#724638" stroke-width="0.141799" stroke-miterlimit="10" stroke-linecap="round" stroke-linejoin="round"/>
<path d="M91.4336 193.559C91.4318 193.836 91.5766 194.061 91.7567 194.062C91.9369 194.065 92.0844 193.841 92.0861 193.563C92.0878 193.286 91.943 193.06 91.7629 193.059C91.5826 193.058 91.4352 193.282 91.4336 193.559Z" fill="#322A28"/>
<path d="M93.8164 193.357C93.8147 193.635 93.9594 193.86 94.1396 193.861C94.3197 193.862 94.4672 193.638 94.4689 193.362C94.4706 193.085 94.3259 192.859 94.1457 192.858C93.9654 192.857 93.818 193.081 93.8164 193.357Z" fill="#322A28"/>
<path d="M92.318 196.779C92.6466 196.892 93.0053 196.719 93.1193 196.391L91.9295 195.981C91.8155 196.308 91.9894 196.665 92.318 196.779Z" fill="white"/>
<path d="M90.8047 192.998C90.8047 192.998 91.368 192.31 92.0181 192.564" stroke="#2C3447" stroke-width="0.210518" stroke-miterlimit="10"/>
<path d="M93.8711 192.451C93.8711 192.451 94.2777 192.378 94.7075 192.818" stroke="#2C3447" stroke-width="0.210518" stroke-miterlimit="10"/>
<path d="M92.9766 193.392C92.9766 193.392 93.0002 194.766 93.809 194.939C93.809 194.939 93.55 195.172 93.2266 195.266" stroke="#2C3447" stroke-width="0.210518" stroke-miterlimit="10"/>
<path d="M91.8784 195.071C91.8105 195.334 91.3571 195.447 90.8656 195.322C90.374 195.197 90.0306 194.881 90.0984 194.618C90.1663 194.353 90.6197 194.24 91.1112 194.366C91.6027 194.491 91.9462 194.807 91.8784 195.071Z" fill="#A14C53"/>
<path d="M94.801 195.108C94.5054 195.12 94.2684 195.027 94.2093 194.849C94.1321 194.615 94.3809 194.323 94.7828 194.148C94.7914 194.523 94.7971 194.857 94.801 195.108Z" fill="#A14C53"/>
<path d="M100.075 219.878C99.2099 217.896 99.9408 215.653 101.699 214.894L117.72 210.36C118.221 210.092 118.783 209.763 119.215 209.436C120.22 208.672 123.194 206.92 123.445 207.348C123.695 207.776 121.901 209.388 122.155 209.482C122.408 209.576 124.001 208.699 124.65 208.272C125.3 207.845 126.543 206.706 126.971 206.861C127.398 207.016 127.339 207.681 127.339 207.681C127.339 207.681 127.76 207.187 128.018 207.509C128.276 207.83 127.807 208.756 127.807 208.756C127.807 208.756 128.013 208.457 128.209 208.882C128.406 209.307 127.233 210.446 127.233 210.446C127.233 210.446 127.535 210.317 127.64 210.659C127.745 211.001 126.038 212.327 124.552 212.862C123.225 213.337 119.945 214.121 119.256 214.284L104.84 222.1C103.084 222.86 100.939 221.859 100.075 219.878Z" fill="#A06753"/>
<path d="M81.6328 216.576L83.7703 212.123" stroke="#2C3447" stroke-width="0.29154" stroke-miterlimit="10"/>
<path d="M91.0299 234.894L85.3828 229.922H102.087L108.299 234.894H91.0299Z" fill="#89A5C7"/>
<path d="M88.0914 196.067C88.0892 196.358 87.8501 196.593 87.5574 196.591C87.2647 196.589 87.0291 196.351 87.0313 196.059C87.0335 195.768 87.2725 195.533 87.5653 195.535C87.858 195.537 88.0935 195.775 88.0914 196.067Z" stroke="white" stroke-width="0.240114" stroke-miterlimit="10"/>
<path d="M108.3 234.894H91.0312L95.5383 222.021H112.807L108.3 234.894Z" fill="#A5BBD6"/>
<path d="M91.2174 234.268L85.5703 229.296H102.274L108.487 234.268H91.2174Z" fill="#89A5C7"/>
<path d="M107.973 234.608H90.7031L95.2102 221.736H112.479L107.973 234.608Z" fill="#A5BBD6"/>
<path d="M112.479 221.736L112.805 222.021H95.5363L91.0293 234.894L90.7031 234.608L95.2102 221.736H112.479Z" fill="#89A5C7"/>
<path d="M85.5711 229.296L85.3828 229.922L91.0299 234.894L91.2487 234.268L85.5711 229.296Z" fill="#586773"/>
<path d="M104.564 228.604C104.564 229.07 103.707 229.447 102.649 229.447C101.592 229.447 100.734 229.07 100.734 228.604C100.734 228.138 101.592 227.76 102.649 227.76C103.707 227.76 104.564 228.138 104.564 228.604Z" fill="#89A5C7"/>
<path d="M72.3788 218.821C73.3974 216.913 75.6148 216.085 77.3065 216.98L90.8531 226.629C91.3757 226.852 91.9838 227.084 92.511 227.216C93.7365 227.523 96.9668 228.746 96.7863 229.208C96.6058 229.671 94.2219 229.279 94.3058 229.534C94.3897 229.79 96.0711 230.484 96.8115 230.723C97.552 230.962 99.2222 231.221 99.3667 231.65C99.5112 232.08 98.9517 232.447 98.9517 232.447C98.9517 232.447 99.6012 232.468 99.5099 232.869C99.4186 233.27 98.3985 233.482 98.3985 233.482C98.3985 233.482 98.7612 233.457 98.5501 233.875C98.3391 234.292 96.713 234.088 96.713 234.088C96.713 234.088 97.0026 234.242 96.7992 234.538C96.5957 234.833 94.4894 234.33 93.1437 233.506C91.9426 232.769 89.2838 230.705 88.7266 230.27L73.6024 223.917C71.9108 223.022 71.3602 220.729 72.3788 218.821Z" fill="#A06753"/>
<path d="M97.4124 215.51C97.4124 215.51 98.5472 213.133 98.363 211.899C98.1786 210.665 97.1685 207.329 97.0352 206.305" stroke="#2C3447" stroke-width="0.29154" stroke-miterlimit="10"/>
<path d="M171.017 154.688H141.005C140.027 154.688 139.234 153.899 139.234 152.926V131.584C139.234 130.611 140.027 129.821 141.005 129.821H171.017C171.995 129.821 172.786 130.611 172.786 131.584V152.926C172.786 153.899 171.995 154.688 171.017 154.688Z" fill="#F9E181"/>
<path d="M153.938 145.978C153.938 146.637 153.83 147.272 153.619 147.886C153.404 148.498 153.089 149.035 152.671 149.499C152.253 149.962 151.729 150.332 151.097 150.607C150.465 150.88 149.732 151.019 148.895 151.019C147.571 151.019 146.486 150.711 145.643 150.099C144.797 149.487 144.242 148.515 143.973 147.178L146.765 146.519C146.862 147.069 147.086 147.508 147.441 147.837C147.796 148.167 148.233 148.332 148.755 148.332C149.607 148.332 150.186 148.047 150.495 147.473C150.803 146.9 150.955 146.11 150.955 145.106V133.916H153.938V145.978Z" fill="white"/>
<path d="M165.775 137.496C165.458 137.041 165.037 136.707 164.507 136.496C163.98 136.283 163.423 136.178 162.839 136.178C162.493 136.178 162.157 136.216 161.834 136.295C161.51 136.373 161.217 136.5 160.957 136.672C160.698 136.845 160.488 137.069 160.33 137.343C160.171 137.618 160.095 137.943 160.095 138.321C160.095 138.887 160.291 139.318 160.686 139.617C161.079 139.916 161.568 140.174 162.153 140.393C162.737 140.614 163.375 140.826 164.07 141.03C164.763 141.235 165.403 141.517 165.986 141.878C166.57 142.24 167.059 142.719 167.454 143.315C167.849 143.911 168.045 144.705 168.045 145.695C168.045 146.59 167.879 147.371 167.548 148.039C167.217 148.706 166.772 149.261 166.212 149.699C165.652 150.138 165 150.47 164.259 150.689C163.517 150.909 162.737 151.019 161.916 151.019C160.874 151.019 159.873 150.845 158.911 150.501C157.947 150.155 157.119 149.574 156.426 148.758L158.673 146.59C159.037 147.14 159.514 147.567 160.106 147.874C160.698 148.179 161.325 148.332 161.988 148.332C162.335 148.332 162.682 148.286 163.028 148.192C163.375 148.096 163.69 147.957 163.976 147.767C164.259 147.579 164.488 147.339 164.661 147.05C164.834 146.759 164.921 146.425 164.921 146.047C164.921 145.436 164.725 144.964 164.33 144.634C163.935 144.304 163.446 144.027 162.862 143.798C162.278 143.57 161.639 143.356 160.946 143.151C160.251 142.947 159.613 142.667 159.029 142.314C158.443 141.96 157.955 141.49 157.561 140.899C157.167 140.311 156.97 139.523 156.97 138.534C156.97 137.669 157.148 136.924 157.502 136.295C157.857 135.667 158.323 135.144 158.899 134.728C159.474 134.312 160.133 134.002 160.874 133.798C161.616 133.593 162.373 133.492 163.148 133.492C164.03 133.492 164.886 133.626 165.714 133.892C166.543 134.159 167.288 134.598 167.951 135.212L165.775 137.496Z" fill="white"/>
<path d="M262.407 156.854H211.714C210.134 156.854 208.852 155.578 208.852 154.005V121.029C208.852 119.456 210.134 118.181 211.714 118.181H262.407C263.987 118.181 265.269 119.456 265.269 121.029V154.005C265.269 155.578 263.987 156.854 262.407 156.854Z" fill="#3D97F2"/>
<path d="M211.871 140.959V138.144L228.203 129.345V133.646L217.294 139.551L228.203 145.456V149.757L211.871 140.959Z" fill="white"/>
<path d="M233.171 153.276L230.492 152.104L240.562 121.758L243.241 123.01L233.171 153.276Z" fill="white"/>
<path d="M262.254 138.144V140.959L245.922 149.757V145.456L256.831 139.551L245.922 133.646V129.345L262.254 138.144Z" fill="white"/>
<path d="M231.299 203.494H332.234C333.717 203.494 334.952 202.122 335.033 200.358C335.34 193.712 337.072 184.647 327.561 180.449C317.99 176.227 308.322 180.988 308.322 180.988C308.322 180.988 306.852 158.443 284.562 158.482C264.041 158.518 254.847 179.271 254.847 179.271C254.847 179.271 236.934 172.533 228.677 198.956C227.992 201.151 229.334 203.494 231.299 203.494Z" fill="#BBDBF3"/>
<path d="M274.696 187.921L270.991 178.838H270.935L267.173 187.921H274.696ZM269.868 175.374H272.31L280.818 195.158H277.673L275.679 190.268H266.219L264.253 195.158H261.109L269.868 175.374Z" fill="white"/>
<path d="M286.092 184.092H289.63C290.154 184.092 290.673 184.05 291.188 183.967C291.703 183.883 292.161 183.729 292.564 183.505C292.966 183.282 293.289 182.961 293.533 182.541C293.776 182.122 293.898 181.578 293.898 180.907C293.898 180.236 293.776 179.691 293.533 179.271C293.289 178.853 292.966 178.532 292.564 178.308C292.161 178.085 291.703 177.931 291.188 177.847C290.673 177.763 290.154 177.72 289.63 177.72H286.092V184.092ZM283.398 175.374H290.388C291.66 175.374 292.709 175.546 293.533 175.891C294.355 176.236 295.006 176.673 295.484 177.204C295.96 177.735 296.293 178.331 296.48 178.992C296.667 179.654 296.76 180.292 296.76 180.907C296.76 181.522 296.667 182.16 296.48 182.82C296.293 183.483 295.96 184.079 295.484 184.609C295.006 185.14 294.355 185.578 293.533 185.922C292.709 186.268 291.66 186.44 290.388 186.44H286.092V195.158H283.398V175.374Z" fill="white"/>
<path d="M300.047 175.374H302.741V195.158H300.047V175.374Z" fill="white"/>
<path d="M338.142 321H30.8581C29.2797 321 28 319.898 28 318.539V317.461C28 316.102 29.2797 315 30.8581 315H338.142C339.72 315 341 316.102 341 317.461V318.539C341 319.898 339.72 321 338.142 321Z" fill="#004C99"/>
<path d="M113.88 45.44C116.16 44.24 117.6 42.08 117.6 39.28C117.6 34.92 114 32 107 32H93.3201V60H107.8C115.16 60 119 57.2 119 52.36C119 48.84 117 46.44 113.88 45.44ZM106.2 36.88C109.36 36.88 111.08 37.96 111.08 40.16C111.08 42.36 109.36 43.48 106.2 43.48H99.7601V36.88H106.2ZM107.32 55.12H99.7601V48.2H107.32C110.68 48.2 112.48 49.32 112.48 51.68C112.48 54.08 110.68 55.12 107.32 55.12Z" fill="#322A28"/>
<path d="M130.946 38.16C127.506 38.16 124.026 39.08 121.666 40.76L123.906 45.12C125.466 43.88 127.826 43.12 130.106 43.12C133.466 43.12 135.066 44.68 135.066 47.36H130.106C123.546 47.36 120.866 50 120.866 53.8C120.866 57.52 123.866 60.32 128.906 60.32C132.066 60.32 134.306 59.28 135.466 57.32V60H141.306V47.72C141.306 41.2 137.506 38.16 130.946 38.16ZM130.466 56.12C128.266 56.12 126.946 55.08 126.946 53.52C126.946 52.08 127.866 51 130.786 51H135.066V53.2C134.346 55.16 132.546 56.12 130.466 56.12Z" fill="#322A28"/>
<path d="M156.388 60.32C160.908 60.32 164.468 58.32 166.028 54.88L161.188 52.24C160.028 54.32 158.308 55.2 156.348 55.2C153.188 55.2 150.708 53 150.708 49.24C150.708 45.48 153.188 43.28 156.348 43.28C158.308 43.28 160.028 44.2 161.188 46.24L166.028 43.64C164.468 40.12 160.908 38.16 156.388 38.16C149.388 38.16 144.388 42.76 144.388 49.24C144.388 55.72 149.388 60.32 156.388 60.32Z" fill="#322A28"/>
<path d="M184.304 60H191.864L182.104 47.6L191.064 38.48H183.624L174.504 47.12V30.32H168.264V60H174.504V54.52L177.504 51.56L184.304 60Z" fill="#322A28"/>
<path d="M210.479 54.8V48.32H223.479V43.28H210.479V37.2H225.199V32H204.039V60H225.719V54.8H210.479Z" fill="#322A28"/>
<path d="M242.315 38.16C239.395 38.16 236.875 39.16 235.195 41V38.48H229.235V60H235.475V49.36C235.475 45.4 237.635 43.56 240.635 43.56C243.395 43.56 244.995 45.16 244.995 48.64V60H251.235V47.68C251.235 41.12 247.395 38.16 242.315 38.16Z" fill="#322A28"/>
<path d="M271.605 30.32V40.76C270.045 39 267.805 38.16 265.165 38.16C259.085 38.16 254.405 42.48 254.405 49.24C254.405 56 259.085 60.32 265.165 60.32C268.045 60.32 270.325 59.4 271.885 57.52V60H277.845V30.32H271.605ZM266.245 55.2C263.125 55.2 260.725 52.96 260.725 49.24C260.725 45.52 263.125 43.28 266.245 43.28C269.325 43.28 271.725 45.52 271.725 49.24C271.725 52.96 269.325 55.2 266.245 55.2Z" fill="#322A28"/>
</svg>
