<svg width="372" height="336" viewBox="0 0 372 336" fill="none" xmlns="http://www.w3.org/2000/svg">
<path d="M95.0002 31.9107H113.966V37.6471H101.227V43.3864H113.008V49.1227H101.227V60.1191H95.0002V31.9107" fill="#322A28"/>
<path d="M117.672 40.7563H123.661V43.8627H123.742C124.379 42.6675 125.14 41.7726 126.016 41.175C126.896 40.5774 127.998 40.2771 129.332 40.2771C129.677 40.2771 130.024 40.2915 130.371 40.3175C130.715 40.3435 131.034 40.3983 131.329 40.4763V45.9356C130.9 45.8028 130.481 45.7017 130.07 45.6353C129.656 45.5689 129.225 45.5371 128.774 45.5371C127.628 45.5371 126.722 45.6959 126.057 46.0164C125.392 46.3339 124.879 46.7785 124.521 47.3502C124.162 47.9218 123.927 48.606 123.82 49.3999C123.713 50.1967 123.661 51.0743 123.661 52.0299V60.1191H117.672V40.7563" fill="#322A28"/>
<path d="M138.474 50.4365C138.474 51.8973 138.893 53.081 139.732 53.9846C140.571 54.8853 141.749 55.3386 143.265 55.3386C144.784 55.3386 145.962 54.8853 146.798 53.9846C147.637 53.081 148.056 51.8973 148.056 50.4365C148.056 48.9757 147.637 47.795 146.798 46.8913C145.962 45.9877 144.784 45.5374 143.265 45.5374C141.749 45.5374 140.571 45.9877 139.732 46.8913C138.893 47.795 138.474 48.9757 138.474 50.4365ZM132.484 50.4365C132.484 48.8977 132.765 47.5034 133.323 46.2533C133.882 45.0062 134.646 43.938 135.618 43.0459C136.59 42.1567 137.736 41.4725 139.052 40.9961C140.372 40.5169 141.775 40.2773 143.265 40.2773C144.755 40.2773 146.161 40.5169 147.478 40.9961C148.797 41.4725 149.94 42.1567 150.912 43.0459C151.884 43.938 152.648 45.0062 153.206 46.2533C153.768 47.5034 154.045 48.8977 154.045 50.4365C154.045 51.9781 153.768 53.3725 153.206 54.6197C152.648 55.8698 151.884 56.9379 150.912 57.8271C149.94 58.7192 148.797 59.4005 147.478 59.8798C146.161 60.3561 144.755 60.5957 143.265 60.5957C141.775 60.5957 140.372 60.3561 139.052 59.8798C137.736 59.4005 136.59 58.7192 135.618 57.8271C134.646 56.9379 133.882 55.8698 133.323 54.6197C132.765 53.3725 132.484 51.9781 132.484 50.4365Z" fill="#322A28"/>
<path d="M157.566 40.7563H163.318V43.3864H163.396C163.585 43.0139 163.851 42.6415 164.195 42.2691C164.542 41.8967 164.953 41.5676 165.433 41.2731C165.914 40.9815 166.458 40.7419 167.071 40.5571C167.681 40.3724 168.35 40.2771 169.067 40.2771C170.583 40.2771 171.807 40.5109 172.742 40.9757C173.671 41.4405 174.397 42.0843 174.918 42.9071C175.436 43.7299 175.789 44.6999 175.974 45.8143C176.162 46.9315 176.254 48.1411 176.254 49.4403V60.1191H170.265V50.6355C170.265 50.0783 170.245 49.5009 170.204 48.9033C170.164 48.3057 170.045 47.7543 169.846 47.2491C169.646 46.7468 169.339 46.3339 168.929 46.0164C168.515 45.6959 167.922 45.5371 167.149 45.5371C166.379 45.5371 165.752 45.6757 165.274 45.9557C164.794 46.2329 164.429 46.6053 164.175 47.0701C163.923 47.5349 163.755 48.0603 163.677 48.6435C163.596 49.2295 163.559 49.8387 163.559 50.4767V60.1191H157.566V40.7563Z" fill="#322A28"/>
<path d="M193.704 45.5374H188.432V51.9926C188.432 52.5238 188.458 53.0059 188.513 53.4447C188.565 53.8836 188.684 54.2617 188.872 54.5793C189.057 54.8997 189.344 55.1452 189.728 55.3184C190.116 55.4916 190.628 55.5782 191.268 55.5782C191.586 55.5782 192.005 55.5436 192.523 55.4772C193.044 55.4108 193.438 55.2577 193.704 55.0181V59.9981C193.038 60.2377 192.344 60.3965 191.626 60.4773C190.906 60.5582 190.203 60.5957 189.511 60.5957C188.499 60.5957 187.567 60.4889 186.714 60.2781C185.863 60.0645 185.116 59.7268 184.48 59.262C183.84 58.7972 183.34 58.1938 182.981 57.4489C182.622 56.707 182.443 55.8034 182.443 54.741V45.5374H178.609V40.7566H182.443V35.0201H188.432V40.7566H193.704V45.5374" fill="#322A28"/>
<path d="M209.551 31.9107H228.757V37.6471H215.78V42.9071H228.039V48.6435H215.78V54.3828H229.474V60.1191H209.551V31.9107" fill="#322A28"/>
<path d="M233.715 40.7563H239.464V43.3864H239.545C239.73 43.0139 239.996 42.6415 240.343 42.2691C240.688 41.8967 241.102 41.5676 241.582 41.2731C242.059 40.9815 242.606 40.7419 243.219 40.5571C243.83 40.3724 244.495 40.2771 245.216 40.2771C246.732 40.2771 247.956 40.5109 248.887 40.9757C249.819 41.4405 250.545 42.0843 251.063 42.9071C251.584 43.7299 251.937 44.6999 252.122 45.8143C252.307 46.9315 252.403 48.1411 252.403 49.4403V60.1191H246.414V50.6355C246.414 50.0783 246.393 49.5009 246.353 48.9033C246.312 48.3057 246.194 47.7543 245.994 47.2491C245.795 46.7468 245.488 46.3339 245.074 46.0164C244.663 45.6959 244.07 45.5371 243.298 45.5371C242.525 45.5371 241.9 45.6757 241.423 45.9557C240.942 46.2329 240.575 46.6053 240.323 47.0701C240.069 47.5349 239.904 48.0603 239.826 48.6435C239.745 49.2295 239.704 49.8387 239.704 50.4767V60.1191H233.715V40.7563" fill="#322A28"/>
<path d="M271.482 50.4365C271.482 48.9757 271.063 47.795 270.223 46.8913C269.384 45.9877 268.207 45.5374 266.691 45.5374C265.175 45.5374 263.994 45.9877 263.158 46.8913C262.319 47.795 261.899 48.9757 261.899 50.4365C261.899 51.8973 262.319 53.081 263.158 53.9846C263.994 54.8853 265.175 55.3386 266.691 55.3386C268.207 55.3386 269.384 54.8853 270.223 53.9846C271.063 53.081 271.482 51.8973 271.482 50.4365ZM276.994 60.1194H271.482V57.5702H271.404C271.164 57.9138 270.848 58.266 270.464 58.6239C270.079 58.9819 269.625 59.3081 269.107 59.5997C268.586 59.8942 268.016 60.1309 267.391 60.3186C266.763 60.5033 266.118 60.5957 265.452 60.5957C264.014 60.5957 262.709 60.3503 261.541 59.8595C260.369 59.3687 259.365 58.6788 258.526 57.7867C257.687 56.8975 257.041 55.8409 256.59 54.6197C256.136 53.3985 255.91 52.0561 255.91 50.5982C255.91 49.2413 256.116 47.9479 256.529 46.7123C256.94 45.4767 257.528 44.3826 258.286 43.4241C259.044 42.4685 259.969 41.7064 261.06 41.1347C262.151 40.5631 263.389 40.2773 264.775 40.2773C266.025 40.2773 267.191 40.4708 268.268 40.8547C269.347 41.2416 270.229 41.8969 270.924 42.8265H271.002V29.9998H276.994V60.1194Z" fill="#322A28"/>
<path d="M316.866 316.098C316.866 316.098 410.571 91.1431 238.612 106.371C164.961 112.892 178.711 152.458 146.182 189.479C125.097 213.475 84.5451 193.845 69.3487 214.813C54.1522 235.782 72.0105 295.572 78.2749 316.098H316.866Z" fill="#E5F0F8"/>
<path d="M118.14 170.227V169.152L120.86 167.676L118.14 166.201V165.126L122.212 167.325V168.028L118.14 170.227Z" fill="#BBDBF3"/>
<path d="M304.685 167.124V305.486C304.685 310.514 300.601 314.59 295.562 314.59H97.5805C92.5415 314.59 88.4565 310.514 88.4565 305.486V167.124C88.4565 162.096 92.5415 158.021 97.5805 158.021H295.562C300.601 158.021 304.685 162.096 304.685 167.124" fill="#93ACBF"/>
<path d="M285.56 167.094V305.525C285.56 305.636 285.541 305.748 285.504 305.85C285.374 306.334 284.927 306.686 284.396 306.686H97.5479C96.8957 306.686 96.3745 306.165 96.3745 305.525V167.094C96.3745 166.443 96.8957 165.922 97.5479 165.922H284.396C285.038 165.922 285.56 166.443 285.56 167.094" fill="#E5F0F8"/>
<path d="M278.908 172.558V300.05H103.027V172.558H278.908" fill="white"/>
<path d="M295.151 251.716C292.935 251.716 291.124 249.909 291.124 247.699V224.912C291.124 222.702 292.935 220.894 295.151 220.894C297.364 220.894 299.177 222.702 299.177 224.912V247.699C299.177 249.909 297.364 251.716 295.151 251.716Z" fill="#BBDBF3"/>
<path d="M278.908 172.558V184.574H103.027V172.558H278.908Z" fill="#BBDBF3"/>
<path d="M267.791 182.022L274.718 175.109" stroke="white" stroke-width="1.11089" stroke-miterlimit="10" stroke-linecap="round" stroke-linejoin="round"/>
<path d="M274.718 182.022L267.791 175.109" stroke="white" stroke-width="1.11089" stroke-miterlimit="10" stroke-linecap="round" stroke-linejoin="round"/>
<path d="M144.719 300.05H103.027V184.574H144.719V300.05Z" fill="#E5F0F8"/>
<path d="M140.555 193.733H107.182V191.049H140.555V193.733Z" fill="white"/>
<path d="M140.555 200.823H107.182V198.139H140.555V200.823Z" fill="white"/>
<path d="M140.555 207.913H107.182V205.23H140.555V207.913Z" fill="white"/>
<path d="M140.555 215.002H107.182V212.319H140.555V215.002Z" fill="white"/>
<path d="M140.555 222.092H107.182V219.41H140.555V222.092Z" fill="white"/>
<path d="M140.555 229.182H107.182V226.5H140.555V229.182Z" fill="white"/>
<path d="M140.555 236.273H107.182V233.59H140.555V236.273Z" fill="white"/>
<path d="M140.555 243.362H107.182V240.68H140.555V243.362Z" fill="white"/>
<path d="M140.555 250.451H107.182V247.769H140.555V250.451Z" fill="white"/>
<path d="M140.555 257.542H107.182V254.859H140.555V257.542Z" fill="white"/>
<path d="M140.555 264.631H107.182V261.949H140.555V264.631Z" fill="white"/>
<path d="M140.555 271.721H107.182V269.039H140.555V271.721Z" fill="white"/>
<path d="M202.862 297.244H149.354V256.2H202.862V297.244Z" stroke="#BBDBF3" stroke-width="0.520589" stroke-miterlimit="10" stroke-linecap="round" stroke-linejoin="round" stroke-dasharray="2.08 2.08"/>
<path d="M247.934 194.457H162.745V187.642H247.934V194.457Z" stroke="#BBDBF3" stroke-width="0.522769" stroke-miterlimit="10"/>
<path d="M234.316 194.457H247.934V187.642H234.316V194.457Z" fill="#BBDBF3"/>
<path d="M234.316 194.457H247.934V187.642H234.316V194.457Z" stroke="#BBDBF3" stroke-width="0.365477" stroke-miterlimit="10"/>
<path d="M260.979 194.457H274.599V187.642H260.979V194.457Z" fill="#BBDBF3"/>
<path d="M260.979 194.457H274.599V187.642H260.979V194.457Z" stroke="#BBDBF3" stroke-width="0.365477" stroke-miterlimit="10"/>
<path d="M240.739 188.924C241.588 189.398 241.894 190.477 241.42 191.323C240.944 192.175 239.863 192.476 239.015 192.002C238.162 191.528 237.857 190.456 238.335 189.604C238.809 188.757 239.886 188.448 240.739 188.924ZM238.773 192.436C239.754 192.982 240.962 192.713 241.639 191.861L245.279 193.892L245.632 193.262L241.992 191.233C242.367 190.211 241.962 189.044 240.978 188.497C239.889 187.888 238.509 188.275 237.901 189.362C237.292 190.448 237.683 191.828 238.773 192.436" fill="white"/>
<path d="M274.6 253.285H149.354V199.48H274.6V253.285Z" stroke="#BBDBF3" stroke-width="0.520589" stroke-miterlimit="10" stroke-linecap="round" stroke-linejoin="round" stroke-dasharray="2.08 2.08"/>
<path d="M274.602 297.244H207.118V286.453H274.602V297.244Z" fill="#E5F0F8"/>
<path d="M217.867 291.847L210.942 287.857V295.838L217.867 291.847Z" fill="white"/>
<path d="M220.954 291.847H270.183" stroke="white" stroke-width="0.439909" stroke-miterlimit="10"/>
<path d="M221.862 293.662H220.954V290.033H221.862V293.662Z" fill="white"/>
<path d="M274.602 282.117H207.118V271.326H274.602V282.117Z" fill="#E5F0F8"/>
<path d="M217.867 276.722L210.942 272.732V280.712L217.867 276.722Z" fill="white"/>
<path d="M220.954 276.722H270.183" stroke="white" stroke-width="0.439909" stroke-miterlimit="10"/>
<path d="M221.862 278.537H220.954V274.908H221.862V278.537Z" fill="white"/>
<path d="M274.602 266.992H207.118V256.201H274.602V266.992Z" fill="#E5F0F8"/>
<path d="M217.867 261.595L210.942 257.607V265.586L217.867 261.595Z" fill="white"/>
<path d="M220.954 261.596H270.183" stroke="white" stroke-width="0.439909" stroke-miterlimit="10"/>
<path d="M221.862 263.413H220.954V259.782H221.862V263.413Z" fill="white"/>
<path d="M221.955 105.764H112.931C111.64 105.764 110.594 106.807 110.594 108.095V113.494V161.531H224.292V113.494V108.095C224.292 106.807 223.246 105.764 221.955 105.764" fill="#004C99"/>
<path d="M111.859 112.192V160.169H223.018V112.192H111.859Z" fill="white"/>
<path d="M132.723 133.647H115.528V116.49H132.723V133.647Z" fill="#E5F0F8"/>
<path d="M132.723 155.487H115.528V138.332H132.723V155.487Z" fill="#F9E181"/>
<path d="M153.806 133.647H136.613V116.49H153.806V133.647Z" fill="#BBDBF3"/>
<path d="M153.806 155.487H136.613V138.332H153.806V155.487Z" fill="#004C99"/>
<path d="M174.892 133.647H157.697V116.49H174.892V133.647Z" fill="#93ACBF"/>
<path d="M174.892 155.487H157.697V138.332H174.892V155.487Z" fill="#80BFFF"/>
<path d="M195.98 133.647H178.785V116.49H195.98V133.647Z" fill="#586773"/>
<path d="M195.98 155.487H178.785V138.332H195.98V155.487Z" fill="#14CC70"/>
<path d="M217.06 133.647H199.865V116.49H217.06V133.647Z" fill="#F9ECB8"/>
<path d="M216.033 139.036C215.128 138.132 213.656 138.152 212.776 139.078L200.637 151.826C200.356 152.122 200.343 152.573 200.587 152.886L199.567 154.393L200.642 155.465L202.152 154.448C202.466 154.692 202.917 154.678 203.214 154.397L215.992 142.285C216.92 141.407 216.938 139.938 216.033 139.036Z" fill="white"/>
<path d="M216.033 139.036C215.128 138.132 213.656 138.152 212.776 139.078L200.637 151.826C200.356 152.122 200.343 152.573 200.587 152.886L199.567 154.393L200.642 155.465L202.152 154.448C202.466 154.692 202.917 154.678 203.214 154.397L215.992 142.285C216.92 141.407 216.938 139.938 216.033 139.036Z" stroke="#586773" stroke-width="0.266246" stroke-miterlimit="10"/>
<path d="M212.732 146.178L208.873 142.329C208.312 141.769 208.312 140.861 208.873 140.303C209.434 139.743 210.343 139.743 210.904 140.303L214.763 144.152C215.323 144.712 215.323 145.62 214.763 146.178C214.202 146.738 213.292 146.738 212.732 146.178Z" fill="white"/>
<path d="M212.732 146.178L208.873 142.329C208.312 141.769 208.312 140.861 208.873 140.303C209.434 139.743 210.343 139.743 210.904 140.303L214.763 144.152C215.323 144.712 215.323 145.62 214.763 146.178C214.202 146.738 213.292 146.738 212.732 146.178Z" stroke="#586773" stroke-width="0.21913" stroke-miterlimit="10"/>
<path d="M307.257 140.817L278.546 185.706C277.615 187.171 275.767 187.687 274.215 187.006L269.034 192.739L263.506 189.41L266.165 182.162C264.832 181.117 264.43 179.24 265.288 177.736L291.654 131.431L307.257 140.817" fill="white"/>
<path d="M318.831 122.718L313.825 130.547L307.258 140.816L291.655 131.431L297.682 120.845L302.279 112.765C304.963 108.048 311.018 106.468 315.676 109.269C320.327 112.066 321.756 118.146 318.831 122.718Z" fill="#586773"/>
<path d="M317.764 140.024C316.893 141.469 315.521 142.415 314.008 142.79C312.49 143.165 310.83 142.968 309.388 142.097L307.259 140.817L291.656 131.432L289.527 130.151C286.641 128.42 285.71 124.674 287.45 121.799C288.319 120.361 289.689 119.409 291.206 119.033C292.725 118.657 294.382 118.862 295.822 119.727L297.683 120.846L313.827 130.548L315.687 131.666C318.574 133.403 319.505 137.143 317.764 140.024Z" fill="#586773"/>
<path d="M266.69 178.53C266.241 179.317 266.445 180.334 267.162 180.895L268.082 181.618L265.477 188.718L268.728 190.675L273.797 185.066L274.863 185.533C275.107 185.64 275.363 185.693 275.626 185.693C276.263 185.693 276.846 185.376 277.186 184.84L284.302 173.715L273.155 167.176L266.69 178.53" fill="#BBDBF3"/>
<path d="M266.69 178.53C266.241 179.317 266.445 180.334 267.162 180.895L268.082 181.618L265.477 188.718L268.728 190.675L273.797 185.066L274.863 185.533C275.107 185.64 275.363 185.693 275.626 185.693C276.263 185.693 276.846 185.376 277.186 184.84L284.302 173.715L273.155 167.176L266.69 178.53Z" stroke="#BBDBF3" stroke-width="0.354476" stroke-miterlimit="10"/>
<path d="M54.8997 314.59H112.891V306.743C112.891 305.63 111.987 304.73 110.872 304.73H56.9186C55.8036 304.73 54.8997 305.63 54.8997 306.743V314.59Z" fill="#088CFC"/>
<path d="M96.772 250.894C94.26 251.639 91.6229 250.184 90.9215 247.664L73.3934 184.704C72.8866 182.882 73.9344 180.992 75.7494 180.453C77.5644 179.913 79.4779 180.923 80.0518 182.725L99.8992 244.997C100.693 247.489 99.284 250.147 96.772 250.894" fill="#088CFC"/>
<path d="M59.6667 272.743V304.729H108.121V272.743H59.6667Z" fill="#80BFFF"/>
<path d="M59.6626 272.744H108.115L103.578 265.845H64.2L59.6626 272.744Z" fill="#004C99"/>
<path d="M89.6812 248.009C90.114 249.562 91.131 250.847 92.5448 251.627C93.9584 252.408 95.59 252.584 97.1383 252.123C97.5547 252.001 97.9567 251.831 98.3334 251.622C100.81 250.254 101.983 247.304 101.124 244.609L94.4785 223.757C94.3517 223.36 93.9267 223.14 93.5281 223.265L84.3551 226.146C83.9651 226.268 83.7427 226.677 83.852 227.07L89.6812 248.009" fill="#004C99"/>
<path d="M78.4451 263.739H89.3398V257.36H78.4451V263.739Z" fill="#004C99"/>
<path d="M71.719 265.845H96.0716V262.183H71.719V265.845Z" fill="#088CFC"/>
<path d="M95.2195 272.742L108.119 295.035V281.108L103.278 272.742H95.2195Z" fill="#088CFC"/>
<path d="M78.8164 272.743L97.3243 304.729H105.378L86.8703 272.743H78.8164Z" fill="#088CFC"/>
<path d="M62.4094 272.743L80.9216 304.729H88.9754L70.4676 272.743H62.4094Z" fill="#088CFC"/>
<path d="M59.6667 282.653V296.576L64.3854 304.729H72.4392L59.6667 282.653" fill="#088CFC"/>
<path d="M73.8247 253.639C75.1908 260.373 91.9351 264.711 99.2792 252.374C106.004 241.076 94.8799 237.221 91.7058 242.151C87.7685 248.267 86.3974 247.058 79.8448 246.763C75.9104 246.586 72.9921 249.533 73.8247 253.639" fill="#80BFFF"/>
<path d="M97.9269 247.608C97.8996 247.875 97.8497 248.165 97.777 248.473C97.777 248.481 97.7726 248.49 97.7726 248.5C97.7045 248.793 97.6183 249.074 97.5185 249.342C97.4051 249.65 97.2736 249.935 97.1282 250.207C96.9559 250.519 96.7652 250.808 96.5521 251.076C96.2979 251.401 96.0167 251.687 95.7172 251.941C95.2952 252.297 94.8369 252.584 94.365 252.81C92.5455 253.664 90.4812 253.58 89.2968 252.81C88.9747 252.601 88.7161 252.339 88.5482 252.036C88.53 252.004 88.5119 251.972 88.4983 251.941C88.3486 251.65 88.2579 251.356 88.2306 251.076C88.1943 250.768 88.226 250.479 88.3124 250.207C88.4167 249.88 88.6027 249.586 88.8567 249.342C89.1472 249.057 89.5328 248.839 89.9865 248.717C90.3496 248.618 90.6763 248.54 90.9802 248.473C92.0011 248.247 92.7044 248.114 93.2398 247.608C93.4666 247.395 93.6664 247.118 93.8433 246.739C93.9567 246.494 94.0611 246.209 94.1609 245.874C94.1882 245.783 94.2153 245.688 94.2425 245.589C94.3015 245.371 94.3922 245.176 94.5148 245.009C95.159 244.089 96.5658 244.009 97.3688 245.009C97.5548 245.235 97.7045 245.525 97.8089 245.874C97.8859 246.127 97.9404 246.418 97.9541 246.739C97.9723 247.006 97.9632 247.291 97.9269 247.608" fill="#322A28"/>
<path d="M95.7162 251.94C95.2942 252.297 94.8359 252.583 94.364 252.809H89.2959C88.9737 252.601 88.7151 252.339 88.5472 252.035C88.529 252.003 88.5109 251.972 88.4973 251.94H95.7162" fill="#80BFFF"/>
<path d="M97.1282 250.205C96.9559 250.518 96.7652 250.807 96.5521 251.075H88.2306C88.1943 250.767 88.226 250.477 88.3124 250.205H97.1282Z" fill="#80BFFF"/>
<path d="M97.777 248.472C97.777 248.481 97.7726 248.489 97.7726 248.499C97.7045 248.793 97.6183 249.073 97.5185 249.341H88.8567C89.1471 249.056 89.5328 248.839 89.9865 248.717C90.3496 248.617 90.6763 248.54 90.9802 248.472H97.777Z" fill="#80BFFF"/>
<path d="M97.9312 247.607H93.2441C93.471 247.394 93.6707 247.117 93.8477 246.737H97.9585C97.9767 247.005 97.9676 247.29 97.9312 247.607Z" fill="#80BFFF"/>
<path d="M97.8104 245.873H94.1624C94.1896 245.782 94.2167 245.687 94.244 245.588C94.303 245.371 94.3937 245.175 94.5163 245.008H97.3702C97.5563 245.234 97.706 245.525 97.8104 245.873" fill="#80BFFF"/>
<path d="M81.9671 181.143C83.5559 184.004 82.5203 187.608 79.6538 189.193C76.7873 190.779 73.1755 189.746 71.5866 186.885C69.9978 184.026 71.0334 180.421 73.8999 178.837C76.7664 177.251 80.3781 178.284 81.9671 181.143Z" fill="#004C99"/>
<path d="M78.0386 183.32C78.4235 184.013 78.1727 184.885 77.4783 185.269C76.7837 185.654 75.9088 185.403 75.5239 184.711C75.1388 184.017 75.3897 183.144 76.0843 182.76C76.7787 182.377 77.6537 182.627 78.0386 183.32V183.32Z" stroke="black" stroke-width="0.0560105" stroke-miterlimit="10"/>
<path d="M73.9952 184.059C74.2121 185.609 75.6599 186.699 77.2126 186.484L132.005 178.847C133.558 178.631 134.651 177.186 134.434 175.636C134.217 174.088 132.769 172.997 131.217 173.213L76.424 180.848C74.8713 181.066 73.7783 182.51 73.9952 184.059" fill="#80BFFF"/>
<path d="M144.397 173.888L144.572 175.314C144.838 177.51 143.272 179.507 141.071 179.774L128.113 181.346C127.107 181.469 126.192 180.755 126.07 179.751L125.37 174.008C125.247 173.003 125.963 172.091 126.969 171.968L139.928 170.396C142.129 170.128 144.13 171.692 144.397 173.888Z" fill="#004C99"/>
<path d="M142.157 170.955C139.865 169.863 137.121 170.832 136.026 173.118C136.022 173.127 136.02 173.135 136.016 173.144L130.495 186.327C129.571 188.258 130.39 190.572 132.325 191.494C134.261 192.417 136.58 191.599 137.504 189.668L144.324 177.074C145.419 174.787 144.448 172.048 142.157 170.955" fill="#088CFC"/>
<path d="M136.247 172.699C137.576 170.539 140.407 169.863 142.571 171.188C142.58 171.194 142.586 171.2 142.595 171.206L154.41 179.274C156.239 180.394 156.812 182.78 155.69 184.604C154.568 186.429 152.176 187 150.348 185.881L137.762 179.011C135.597 177.686 134.919 174.859 136.247 172.699" fill="#088CFC"/>
<path d="M138.294 173.982C137.771 174.952 138.022 176.129 138.839 176.807C138.957 176.905 139.084 176.993 139.224 177.068C139.365 177.142 139.511 177.203 139.655 177.244C140.673 177.547 141.794 177.109 142.317 176.139C142.838 175.171 142.587 173.995 141.772 173.315C141.657 173.218 141.527 173.129 141.387 173.054C141.246 172.978 141.103 172.92 140.956 172.876C139.939 172.572 138.816 173.014 138.294 173.982Z" fill="#F9ECB8"/>
<path d="M140.954 172.876L138.837 176.808C138.955 176.905 139.082 176.993 139.222 177.068C139.363 177.143 139.509 177.203 139.653 177.245L141.77 173.315C141.655 173.219 141.525 173.13 141.385 173.055C141.244 172.978 141.101 172.921 140.954 172.876Z" fill="#F9E181"/>
<path d="M156.294 182.585C156.405 180.472 154.778 178.669 152.659 178.557C150.542 178.446 148.735 180.069 148.624 182.183C148.604 182.556 148.656 182.913 148.738 183.259H148.721L150.991 196.35C150.969 196.753 151.279 197.096 151.683 197.117C152.085 197.139 152.43 196.829 152.452 196.426L156.085 183.645L156.067 183.644C156.186 183.308 156.274 182.959 156.294 182.585" fill="#80BFFF"/>
<path d="M151.179 181.541C150.793 182.192 150.93 183.005 151.468 183.493C151.545 183.563 151.631 183.628 151.724 183.683C151.818 183.739 151.916 183.783 152.014 183.818C152.704 184.054 153.484 183.788 153.87 183.139C154.257 182.491 154.118 181.678 153.582 181.187C153.505 181.118 153.419 181.054 153.325 180.998C153.231 180.941 153.135 180.898 153.035 180.864C152.347 180.625 151.564 180.894 151.179 181.541Z" fill="#F9ECB8"/>
<path d="M153.036 180.864L151.469 183.493C151.546 183.563 151.631 183.628 151.725 183.683C151.819 183.739 151.917 183.784 152.015 183.818L153.583 181.188C153.506 181.119 153.42 181.054 153.326 180.998C153.232 180.942 153.136 180.898 153.036 180.864" fill="#F9E181"/>
<path d="M241.939 209.552L122.976 248.634L106.113 197.528L225.074 158.446L241.939 209.552Z" fill="#BBDBF3"/>
<path d="M144.352 189.71L158.39 232.256L124.996 243.225L110.957 200.681L144.352 189.71" fill="white"/>
<path d="M140.557 210.963C142.176 215.869 140.377 220.869 136.538 222.13C132.7 223.39 128.276 220.435 126.657 215.529C125.038 210.622 126.837 205.623 130.676 204.362C134.514 203.102 138.938 206.056 140.557 210.963Z" fill="#BBDBF3"/>
<path d="M156.619 232.837L126.757 242.647C123.678 232.607 127.646 222.434 135.758 219.769C143.878 217.101 153.118 222.935 156.619 232.837Z" fill="#BBDBF3"/>
<path d="M175.9 181.785L149.562 190.438L148.836 188.236L175.173 179.584L175.9 181.785" fill="white"/>
<path d="M224.286 165.889L218.615 167.753L217.888 165.551L223.559 163.688L224.286 165.889Z" fill="white"/>
<path d="M216.904 168.314L211.232 170.177L210.505 167.976L216.177 166.112L216.904 168.314Z" fill="white"/>
<path d="M209.528 170.739L203.857 172.603L203.13 170.399L208.802 168.537L209.528 170.739" fill="white"/>
<path d="M194.526 185.811L152.582 199.59L151.856 197.389L193.799 183.609L194.526 185.811Z" fill="white"/>
<path d="M184.452 184.047L151.072 195.013L150.346 192.812L183.726 181.845L184.452 184.047Z" fill="white"/>
<path d="M160.537 203.391L154.492 205.377L153.864 203.476L159.91 201.49L160.537 203.391Z" fill="white"/>
<path d="M185.261 195.268L161.385 203.112L160.758 201.211L184.633 193.367L185.261 195.268Z" fill="white"/>
<path d="M206.887 188.163L186.208 194.956L185.581 193.055L206.26 186.262L206.887 188.163Z" fill="white"/>
<path d="M229.214 180.829L207.737 187.884L207.11 185.983L228.587 178.928L229.214 180.829Z" fill="white"/>
<path d="M168.228 204.887L155.692 209.005L155.064 207.104L167.601 202.986L168.228 204.887Z" fill="white"/>
<path d="M191.604 197.207L169.201 204.568L168.573 202.665L190.976 195.306L191.604 197.207Z" fill="white"/>
<path d="M230.415 184.456L192.579 196.887L191.951 194.986L229.789 182.555L230.415 184.456Z" fill="white"/>
<path d="M176.113 206.318L156.883 212.635L156.256 210.735L175.486 204.417L176.113 206.318Z" fill="white"/>
<path d="M204.137 197.112L176.913 206.055L176.287 204.153L203.51 195.21L204.137 197.112Z" fill="white"/>
<path d="M231.608 188.086L205.186 196.766L204.559 194.865L230.981 186.185L231.608 188.086Z" fill="white"/>
<path d="M181.647 208.525L158.087 216.264L157.46 214.363L181.02 206.624L181.647 208.525Z" fill="white"/>
<path d="M206.355 200.406L182.796 208.146L182.168 206.244L205.728 198.505L206.355 200.406Z" fill="white"/>
<path d="M232.762 191.73L207.414 200.058L206.787 198.155L232.135 189.829L232.762 191.73Z" fill="white"/>
<path d="M180.046 213.072L159.283 219.894L158.656 217.992L179.419 211.171L180.046 213.072Z" fill="white"/>
<path d="M210.764 202.98L180.91 212.789L180.283 210.888L210.136 201.079L210.764 202.98Z" fill="white"/>
<path d="M233.963 195.359L211.68 202.679L211.052 200.778L233.335 193.458L233.963 195.359Z" fill="white"/>
<path d="M171.248 219.984L160.475 223.523L159.848 221.621L170.621 218.083L171.248 219.984Z" fill="white"/>
<path d="M186.734 214.896L172.258 219.652L171.63 217.751L186.107 212.995L186.734 214.896Z" fill="white"/>
<path d="M210.863 206.971L187.844 214.533L187.217 212.632L210.236 205.07L210.863 206.971Z" fill="white"/>
<path d="M234.976 199.047L211.957 206.609L211.33 204.708L234.348 197.146L234.976 199.047Z" fill="white"/>
<path d="M185.883 219.199L161.675 227.153L161.047 225.252L185.256 217.299L185.883 219.199Z" fill="white"/>
<path d="M206.215 212.521L186.934 218.855L186.307 216.953L205.587 210.62L206.215 212.521Z" fill="white"/>
<path d="M223.4 206.875L207.414 212.126L206.787 210.225L222.772 204.974L223.4 206.875Z" fill="white"/>
<path d="M236.173 202.676L224.393 206.547L223.766 204.646L235.545 200.775L236.173 202.676Z" fill="white"/>
<path d="M180.358 225.038L162.875 230.781L162.247 228.88L179.731 223.137L180.358 225.038Z" fill="white"/>
<path d="M130.099 188.892C129.735 186.807 131.135 184.823 133.224 184.46C135.314 184.098 137.302 185.493 137.665 187.579C137.73 187.947 137.722 188.307 137.681 188.661L137.699 188.658L137.012 201.927C137.081 202.323 136.815 202.701 136.416 202.77C136.018 202.839 135.64 202.573 135.571 202.176L130.434 189.92L130.451 189.915C130.293 189.596 130.163 189.259 130.099 188.892" fill="#80BFFF"/>
<path d="M132.894 186.979C132.299 187.447 132.133 188.254 132.459 188.903C132.506 188.998 132.562 189.087 132.63 189.173C132.697 189.258 132.772 189.336 132.852 189.402C133.408 189.871 134.233 189.903 134.828 189.437C135.422 188.972 135.587 188.163 135.263 187.513C135.217 187.421 135.16 187.329 135.092 187.244C135.025 187.157 134.951 187.083 134.87 187.014C134.315 186.544 133.488 186.514 132.894 186.979" fill="#F9ECB8"/>
<path d="M134.873 187.013L132.462 188.902C132.509 188.997 132.565 189.086 132.633 189.173C132.7 189.257 132.775 189.335 132.855 189.401L135.266 187.512C135.22 187.42 135.163 187.328 135.095 187.243C135.028 187.157 134.954 187.082 134.873 187.013" fill="#F9E181"/>
<path d="M186.336 276.583L176.067 255.789L163.153 275.061L186.336 276.583Z" fill="white"/>
<path d="M84.3303 255.012C84.3303 259.18 90.5167 266.578 90.2323 274.807C89.9479 283.038 88.4547 288.679 92.5078 288.892C96.5611 289.104 114.587 288.892 114.587 288.892H122.587C122.587 288.892 124.116 280.891 118.889 280.306C113.663 279.721 107.97 280.478 106.996 277.274C105.93 273.761 106.623 267.375 106.783 263.438C106.943 259.499 108.436 251.464 103.316 248.378C98.1965 245.292 92.1915 246.213 88.4368 247.952C85.4503 249.335 84.3303 251.357 84.3303 255.012Z" fill="#CC1439"/>
<path d="M113.204 314.62C112.887 314.62 112.63 314.364 112.63 314.047V313.409C112.63 313.093 112.887 312.837 113.204 312.837C113.52 312.837 113.777 313.093 113.777 313.409V314.047C113.777 314.364 113.52 314.62 113.204 314.62Z" fill="#BBDBF3"/>
<path d="M107.014 310.282L113.202 312.837L107.014 311.773V310.282Z" fill="#586773"/>
<path d="M132.07 314.81H130.499V273.523H132.07V314.81Z" fill="#586773"/>
<path d="M131.801 310.713L136.89 310.77L135.854 303.139L129.907 305.19L131.801 310.713" fill="#A06753"/>
<path d="M131.629 314.62L134.031 314.609L134.178 313.06L135.494 314.601L141.161 314.574L136.892 310.771L131.803 310.713L131.629 314.62" fill="#322A28"/>
<path d="M135.466 311.755L137.731 311.736" stroke="#D1DDFF" stroke-width="0.318451" stroke-miterlimit="10"/>
<path d="M136.021 312.531L138.286 312.513" stroke="#D1DDFF" stroke-width="0.318451" stroke-miterlimit="10"/>
<path d="M125.234 275.178C122.544 276.14 121.145 279.099 122.111 281.784L128.882 306.096L137.225 304.803L132.151 279.738H132.149C132.121 279.257 132.027 278.771 131.855 278.293C130.89 275.609 127.925 274.214 125.234 275.178" fill="#B86B76"/>
<path d="M120.275 272.127C118.774 273.047 116.792 272.573 115.871 271.075L108.946 259.819C108.025 258.321 108.499 256.344 110 255.425C111.501 254.505 113.482 254.978 114.404 256.476L121.329 267.732C122.25 269.23 121.776 271.208 120.275 272.127Z" fill="#F9E181"/>
<path d="M99.0884 276.099C99.0884 276.099 98.1553 277.158 97.784 278.02C97.4128 278.883 101.844 278.407 101.844 278.407L101.361 274.263L99.0884 276.099Z" fill="#0066CC"/>
<path d="M132.231 280.261C132.231 283.224 129.801 285.649 126.831 285.649H106.088C103.118 285.649 100.688 283.224 100.688 280.261C100.688 277.297 103.118 274.873 106.088 274.873H126.831C129.801 274.873 132.231 277.297 132.231 280.261Z" fill="#B86B76"/>
<path d="M110.864 246.466C110.864 246.466 112.235 243.683 110.438 243.763C108.641 243.844 110.864 246.466 110.864 246.466Z" fill="#322A28"/>
<path d="M128.571 282.91C128.29 285.86 125.641 288.045 122.684 287.764L102.034 285.806C99.0779 285.525 96.889 282.882 97.1701 279.932C97.451 276.982 100.1 274.799 103.056 275.078L123.707 277.038C126.663 277.317 128.852 279.96 128.571 282.91" fill="#E7888B"/>
<path d="M103.668 253.647L98.0642 256.28C98.0642 256.28 99.3101 270.573 99.4389 272.147C99.5678 273.721 99.0847 276.098 99.0847 276.098H112.513C112.513 276.098 112.352 268.387 113.254 266.234C113.865 264.776 114.284 263.888 113.93 262.218C113.576 260.547 112.385 258.04 112.803 255.149L109.358 253.768L103.668 253.647" fill="#F9E181"/>
<path d="M109.358 247.269V253.769C109.358 253.769 109.358 253.849 109.342 253.977C109.276 254.508 108.932 255.87 107.161 255.852C105.543 255.832 104.413 254.647 103.932 254.024C103.757 253.801 103.668 253.649 103.668 253.649L104.483 247.269H109.358" fill="#A06753"/>
<path d="M112.863 310.713L117.953 310.77L119.033 307.327L113.473 306.905L112.863 310.713" fill="#A06753"/>
<path d="M109.361 253.768L106.464 250.077L109.36 249.52L109.361 253.768Z" fill="#824C3A"/>
<path d="M109.497 251.211C108.343 251.586 106.744 251.129 105.613 249.943C104.481 248.757 101.939 244.318 105.332 242.251C108.729 240.185 110.735 243.606 110.823 244.135C110.823 244.135 110.856 246.003 110.877 247.318C110.885 247.653 110.89 247.951 110.893 248.174C110.892 248.212 110.896 248.245 110.895 248.277C110.912 249.308 110.649 250.839 109.497 251.211" fill="#A06753"/>
<path d="M90.0873 272.389C88.6497 271.374 88.3061 269.369 89.3234 267.936L96.9707 257.155C97.988 255.72 99.9964 255.378 101.434 256.392C102.871 257.407 103.215 259.412 102.198 260.846L94.5506 271.627C93.5333 273.062 91.5247 273.404 90.0873 272.389Z" fill="#F9E181"/>
<path d="M112.692 314.62L115.094 314.609L115.241 313.06L116.556 314.601L122.223 314.574L117.955 310.771L112.865 310.713L112.692 314.62" fill="#322A28"/>
<path d="M111.078 243.542C111.127 244.271 110.715 245.291 108.519 245.21C106.323 245.131 105.94 246.196 106.162 247.079C106.162 247.079 105.699 246.586 105.82 245.969C105.82 245.969 105.034 246.868 105.356 247.789C105.356 247.789 104.795 246.905 104.451 247.556C104.107 248.206 104.564 248.72 104.114 250.192C104.114 250.192 104.335 248.733 103.567 247.957C102.798 247.18 102.002 239.784 107.653 241.594C107.653 241.594 110.873 240.538 111.078 243.542" fill="#322A28"/>
<path d="M124.422 277.358C121.607 276.862 118.922 278.738 118.425 281.547L112.018 307.484L120.01 309.024L128.16 284.742H128.158C128.373 284.309 128.533 283.841 128.621 283.342C129.118 280.533 127.238 277.853 124.422 277.358Z" fill="#E7888B"/>
<path d="M116.532 311.755L118.798 311.736" stroke="#D1DDFF" stroke-width="0.318451" stroke-miterlimit="10"/>
<path d="M117.083 312.531L119.349 312.513" stroke="#D1DDFF" stroke-width="0.318451" stroke-miterlimit="10"/>
<path d="M105.066 247.672C105.267 248.279 105.262 248.669 104.783 248.826C104.305 248.982 103.643 248.726 103.443 248.118C103.243 247.51 103.468 246.89 103.946 246.733C104.424 246.576 104.866 247.063 105.066 247.672" fill="#A06753"/>
<path d="M103.852 247.345C103.852 247.345 104.618 247.309 104.685 247.956C104.685 247.956 104.434 247.726 104.05 247.794" stroke="#724638" stroke-width="0.0796127" stroke-miterlimit="10" stroke-linecap="round" stroke-linejoin="round"/>
<path d="M107.896 246.793C107.895 247.04 108.023 247.242 108.183 247.243C108.344 247.243 108.475 247.045 108.476 246.797C108.478 246.55 108.349 246.348 108.189 246.348C108.029 246.347 107.898 246.547 107.896 246.793Z" fill="#322A28"/>
<path d="M110.014 246.615C110.013 246.862 110.141 247.062 110.302 247.064C110.462 247.065 110.593 246.865 110.594 246.618C110.596 246.372 110.467 246.17 110.307 246.169C110.147 246.169 110.016 246.367 110.014 246.615Z" fill="#322A28"/>
<path d="M108.681 249.663C108.973 249.764 109.292 249.61 109.393 249.318L108.335 248.951C108.234 249.243 108.389 249.561 108.681 249.663Z" fill="white"/>
<path d="M107.333 246.293C107.333 246.293 107.834 245.679 108.412 245.905" stroke="#2C3447" stroke-width="0.118195" stroke-miterlimit="10"/>
<path d="M110.063 245.806C110.063 245.806 110.425 245.739 110.807 246.133" stroke="#2C3447" stroke-width="0.118195" stroke-miterlimit="10"/>
<path d="M109.267 246.645C109.267 246.645 109.288 247.87 110.007 248.024C110.007 248.024 109.777 248.23 109.49 248.315" stroke="#2C3447" stroke-width="0.118195" stroke-miterlimit="10"/>
<path d="M108.291 248.141C108.23 248.377 107.827 248.476 107.39 248.365C106.953 248.253 106.648 247.972 106.708 247.736C106.768 247.502 107.171 247.401 107.608 247.513C108.045 247.624 108.351 247.906 108.291 248.141" fill="#A14C53"/>
<path d="M110.892 248.174C110.629 248.184 110.418 248.102 110.365 247.942C110.297 247.735 110.518 247.475 110.875 247.318C110.883 247.653 110.888 247.951 110.892 248.174" fill="#A14C53"/>
<path d="M115.582 270.253C114.813 268.487 115.463 266.487 117.026 265.811L131.273 261.769C131.718 261.53 132.218 261.238 132.603 260.945C133.496 260.265 136.14 258.703 136.363 259.085C136.586 259.466 134.991 260.904 135.216 260.987C135.442 261.071 136.858 260.289 137.435 259.908C138.013 259.527 139.118 258.512 139.499 258.65C139.879 258.788 139.826 259.381 139.826 259.381C139.826 259.381 140.2 258.941 140.43 259.227C140.66 259.514 140.243 260.34 140.243 260.34C140.243 260.34 140.426 260.073 140.601 260.452C140.775 260.83 139.732 261.846 139.732 261.846C139.732 261.846 140.001 261.731 140.094 262.036C140.187 262.341 138.669 263.523 137.347 263.999C136.167 264.424 133.252 265.121 132.639 265.267L119.82 272.234C118.258 272.911 116.351 272.02 115.582 270.253" fill="#A06753"/>
<path d="M99.1824 267.31L101.083 263.341" stroke="#2C3447" stroke-width="0.163685" stroke-miterlimit="10"/>
<path d="M104.921 249.029C104.919 249.288 104.706 249.498 104.446 249.495C104.186 249.494 103.976 249.282 103.978 249.022C103.98 248.763 104.193 248.553 104.453 248.555C104.713 248.557 104.923 248.768 104.921 249.029V249.029Z" stroke="white" stroke-width="0.134812" stroke-miterlimit="10"/>
<path d="M88.6353 269.369C88.5577 271.293 89.887 272.923 91.5891 272.992L106.338 271.63C106.84 271.692 109.582 271.423 110.298 270.938C110.724 270.65 111.38 270.582 111.994 270.902C112.689 271.263 113.291 271.51 113.518 271.292C113.809 271.011 112.09 270.267 112.135 270.132C112.181 269.996 113.08 270.473 113.514 270.694C114 270.94 114.549 270.976 114.641 270.805C114.87 270.378 113.873 269.778 113.873 269.778C113.873 269.778 115.248 270.532 115.407 270.146C115.499 269.923 114.864 269.441 114.343 269.165C113.987 268.976 112.669 268.49 112.732 268.314C112.773 268.202 113.999 268.776 114.254 268.855C114.744 269.009 115.494 269.002 115.479 268.798C115.456 268.48 112.702 267.117 111.055 267.464C109.467 267.798 106.988 267.96 106.364 268.045L91.8711 265.995C90.1691 265.927 88.7129 267.445 88.6353 269.369" fill="#A06753"/>
<path d="M113.211 266.358C113.211 266.358 114.22 264.24 114.056 263.141C113.892 262.04 112.994 259.067 112.875 258.154" stroke="#2C3447" stroke-width="0.163685" stroke-miterlimit="10"/>
<path d="M105.136 239.328C105.545 240.805 105.002 242.244 103.923 242.54C102.844 242.838 101.637 241.883 101.229 240.406C100.82 238.93 101.363 237.491 102.442 237.193C103.521 236.896 104.728 237.852 105.136 239.328" fill="#322A28"/>
<path d="M103.603 311.774H101.896V289.283H103.603V311.774Z" fill="#586773"/>
<path d="M107.018 311.774H98.4844V310.284H107.018V311.774Z" fill="#586773"/>
<path d="M105.222 290.412H100.28V288.958H105.222V290.412Z" fill="#586773"/>
<path d="M92.2991 314.62C92.6158 314.62 92.8724 314.364 92.8724 314.047V313.409C92.8724 313.093 92.6158 312.837 92.2991 312.837C91.9824 312.837 91.7258 313.093 91.7258 313.409V314.047C91.7258 314.364 91.9824 314.62 92.2991 314.62Z" fill="#586773"/>
<path d="M98.4844 310.282L92.2971 312.837L98.4844 311.773V310.282Z" fill="#586773"/>
<path d="M87.0688 314.81H85.4976V273.523H87.0688V314.81Z" fill="#BBDBF3"/>
<path d="M89.9299 279.991C89.9299 279.991 109.797 277.484 113.841 281.102C117.399 284.286 114.587 288.893 114.587 288.893L94.961 288.959L89.9299 279.991" fill="#CC1439"/>
<path d="M105.745 314.81H104.174V273.523H105.745V314.81Z" fill="#BBDBF3"/>
<path d="M150.739 314.81H149.167V273.523H150.739V314.81Z" fill="#586773"/>
<path d="M122.552 268.045H144.449C144.885 268.045 145.245 267.708 145.276 267.274L146.183 253.787C146.214 253.311 145.835 252.906 145.356 252.906H123.459C123.023 252.906 122.662 253.243 122.633 253.676L121.726 267.164C121.693 267.641 122.073 268.045 122.552 268.045" fill="#93ACBF"/>
<path d="M121.883 267.708L122.495 268.297L123.557 266.667L122.03 266.537L121.883 267.708" fill="#93ACBF"/>
<path d="M145.87 253.085L146.411 253.588L145.275 254.37L144.526 253.575L145.374 253.085H145.87" fill="#93ACBF"/>
<path d="M123.041 268.504H144.939C145.375 268.504 145.735 268.166 145.764 267.733L146.671 254.246C146.704 253.769 146.325 253.364 145.846 253.364H123.948C123.513 253.364 123.152 253.702 123.122 254.136L122.215 267.622C122.183 268.1 122.562 268.504 123.041 268.504" fill="#586773"/>
<path d="M131.935 265.251L132.59 271.6H137.858L136.84 261.732H132.258L131.935 265.251Z" fill="#586773"/>
<path d="M133.276 271.601H138.546L137.528 261.731H132.258L133.276 271.601Z" fill="#93ACBF"/>
<path d="M128.605 272.886H140.283V272.184C140.283 271.862 140.022 271.601 139.699 271.601H129.189C128.866 271.601 128.605 271.862 128.605 272.184V272.886Z" fill="#586773"/>
<path d="M130.67 272.886H142.348V272.184C142.348 271.862 142.087 271.601 141.764 271.601H131.254C130.931 271.601 130.67 271.862 130.67 272.184V272.886Z" fill="#93ACBF"/>
<path d="M152.842 274.583H97.4968V272.887H152.842V274.583Z" fill="#586773"/>
<path d="M106.285 274.583H83.3386V272.887H106.285V274.583Z" fill="#BBDBF3"/>
<path d="M126.141 272.886H109.884V272.363C109.884 272.138 110.066 271.957 110.292 271.957H125.733C125.958 271.957 126.141 272.138 126.141 272.363V272.886Z" fill="white"/>
<path d="M335.929 320.779H45.9978C44.3098 320.779 42.9414 319.413 42.9414 317.728V317.625C42.9414 315.94 44.3098 314.575 45.9978 314.575H335.929C337.618 314.575 338.985 315.94 338.985 317.625V317.728C338.985 319.413 337.618 320.779 335.929 320.779Z" fill="#004C99"/>
<path d="M244.4 125.073C245.166 125.919 245.099 127.224 244.251 127.989C243.402 128.754 242.094 128.686 241.33 127.84C240.562 126.993 240.629 125.688 241.477 124.923C242.326 124.159 243.634 124.227 244.4 125.073V125.073ZM245.31 122.953C244.919 122.68 244.489 122.48 244.042 122.353C243.963 122.834 243.532 123.189 243.033 123.164C242.532 123.138 242.141 122.743 242.111 122.256C241.654 122.336 241.207 122.49 240.79 122.723C241.074 123.12 241.021 123.674 240.65 124.008C240.278 124.344 239.72 124.339 239.354 124.017C239.08 124.407 238.879 124.836 238.754 125.28C239.236 125.36 239.59 125.79 239.564 126.288C239.538 126.786 239.142 127.178 238.654 127.209C238.735 127.665 238.891 128.111 239.123 128.527C239.52 128.243 240.076 128.294 240.412 128.666C240.748 129.036 240.744 129.596 240.42 129.96C240.81 130.233 241.24 130.433 241.686 130.559C241.765 130.078 242.198 129.724 242.697 129.748C243.196 129.774 243.588 130.17 243.618 130.656C244.074 130.577 244.523 130.422 244.939 130.189C244.655 129.793 244.707 129.239 245.079 128.904C245.45 128.568 246.008 128.573 246.376 128.895C246.648 128.505 246.849 128.078 246.976 127.632C246.493 127.553 246.139 127.124 246.164 126.624C246.19 126.126 246.588 125.735 247.075 125.705C246.996 125.249 246.84 124.803 246.607 124.387C246.208 124.67 245.652 124.618 245.317 124.247C244.98 123.876 244.984 123.319 245.31 122.953Z" fill="white"/>
<path d="M243.574 135.931C243.697 135.419 243.728 134.897 243.677 134.386C243.149 134.501 242.608 134.202 242.431 133.679C242.253 133.155 242.501 132.593 242.991 132.364C242.723 131.928 242.381 131.532 241.973 131.198C241.679 131.65 241.086 131.823 240.59 131.577C240.094 131.332 239.872 130.758 240.055 130.25C239.542 130.128 239.018 130.096 238.508 130.148C238.622 130.676 238.323 131.213 237.8 131.39C237.276 131.567 236.709 131.318 236.48 130.83C236.042 131.099 235.645 131.44 235.31 131.847C235.765 132.139 235.939 132.731 235.693 133.227C235.447 133.724 234.869 133.945 234.36 133.761C234.237 134.274 234.206 134.796 234.259 135.305C234.787 135.192 235.328 135.49 235.505 136.012C235.681 136.536 235.433 137.098 234.944 137.327C235.212 137.763 235.554 138.16 235.962 138.493C236.257 138.041 236.849 137.868 237.345 138.114C237.841 138.359 238.064 138.933 237.88 139.441C238.394 139.563 238.917 139.595 239.428 139.543C239.314 139.017 239.612 138.478 240.136 138.301C240.659 138.124 241.226 138.373 241.456 138.861C241.893 138.595 242.289 138.254 242.624 137.845C242.168 137.552 241.996 136.96 242.242 136.465C242.488 135.969 243.064 135.746 243.574 135.931ZM241.017 135.859C240.458 136.989 239.085 137.452 237.951 136.893C236.817 136.333 236.356 134.963 236.917 133.833C237.478 132.702 238.851 132.239 239.983 132.799C241.117 133.36 241.58 134.73 241.017 135.859Z" fill="white"/>
</svg>
